<mxfile host="app.diagrams.net" agent="Mozilla/5.0 (X11; Linux x86_64; rv:140.0) Gecko/20100101 Firefox/140.0" version="28.0.6">
  <diagram name="Pagina-1" id="ztOF_XK8uLvyLNqtx-sG">
    <mxGraphModel dx="648" dy="586" grid="1" gridSize="10" guides="1" tooltips="1" connect="1" arrows="1" fold="1" page="1" pageScale="1" pageWidth="850" pageHeight="1100" math="0" shadow="0">
      <root>
        <mxCell id="0" />
        <mxCell id="1" parent="0" />
        <mxCell id="TYrLCPMJrX0rA2hv0LJ_-5" style="rounded=0;orthogonalLoop=1;jettySize=auto;html=1;exitX=1;exitY=0.5;exitDx=0;exitDy=0;entryX=0;entryY=0;entryDx=0;entryDy=0;" parent="1" source="TYrLCPMJrX0rA2hv0LJ_-1" target="TYrLCPMJrX0rA2hv0LJ_-4" edge="1">
          <mxGeometry relative="1" as="geometry" />
        </mxCell>
        <mxCell id="TYrLCPMJrX0rA2hv0LJ_-26" style="rounded=0;orthogonalLoop=1;jettySize=auto;html=1;exitX=1;exitY=0;exitDx=0;exitDy=0;entryX=0;entryY=0.5;entryDx=0;entryDy=0;" parent="1" source="TYrLCPMJrX0rA2hv0LJ_-1" target="TYrLCPMJrX0rA2hv0LJ_-25" edge="1">
          <mxGeometry relative="1" as="geometry" />
        </mxCell>
        <mxCell id="TYrLCPMJrX0rA2hv0LJ_-1" value="&lt;div&gt;v&lt;sub&gt;i&lt;br&gt;&lt;/sub&gt;&lt;/div&gt;&lt;sub&gt;value:1&lt;/sub&gt;" style="ellipse;whiteSpace=wrap;html=1;aspect=fixed;fontSize=20;" parent="1" vertex="1">
          <mxGeometry x="60" y="210" width="80" height="80" as="geometry" />
        </mxCell>
        <mxCell id="TYrLCPMJrX0rA2hv0LJ_-6" style="rounded=0;orthogonalLoop=1;jettySize=auto;html=1;exitX=1;exitY=0.5;exitDx=0;exitDy=0;entryX=0;entryY=1;entryDx=0;entryDy=0;" parent="1" source="TYrLCPMJrX0rA2hv0LJ_-2" target="TYrLCPMJrX0rA2hv0LJ_-4" edge="1">
          <mxGeometry relative="1" as="geometry" />
        </mxCell>
        <mxCell id="TYrLCPMJrX0rA2hv0LJ_-2" value="&lt;div&gt;v&lt;sub&gt;k&lt;br&gt;&lt;/sub&gt;&lt;/div&gt;&lt;sub&gt;value:0.5&lt;/sub&gt;" style="ellipse;whiteSpace=wrap;html=1;aspect=fixed;fontSize=20;" parent="1" vertex="1">
          <mxGeometry x="60" y="470" width="80" height="80" as="geometry" />
        </mxCell>
        <mxCell id="TYrLCPMJrX0rA2hv0LJ_-4" value="&lt;div&gt;v&lt;sub&gt;s&lt;br&gt;&lt;/sub&gt;&lt;/div&gt;&lt;sub&gt;value:0&lt;/sub&gt;" style="ellipse;whiteSpace=wrap;html=1;aspect=fixed;fontSize=20;" parent="1" vertex="1">
          <mxGeometry x="280" y="350" width="80" height="80" as="geometry" />
        </mxCell>
        <mxCell id="TYrLCPMJrX0rA2hv0LJ_-7" value="" style="shape=flexArrow;endArrow=classic;html=1;rounded=0;" parent="1" edge="1">
          <mxGeometry width="50" height="50" relative="1" as="geometry">
            <mxPoint x="394" y="390" as="sourcePoint" />
            <mxPoint x="604" y="390" as="targetPoint" />
          </mxGeometry>
        </mxCell>
        <mxCell id="TYrLCPMJrX0rA2hv0LJ_-16" value="" style="shape=image;verticalLabelPosition=bottom;labelBackgroundColor=default;verticalAlign=top;aspect=fixed;imageAspect=0;image=data:image/png,iVBORw0KGgoAAAANSUhEUgAAAU4AAAA1CAIAAACho5WIAAAACXBIWXMAAA7EAAAOxAGVKw4bAAAY70lEQVR4nO2de1xTR/bAh0B4BgIIBgW2ILJoqSIgAkpF66NFlKdoAVetxtoKuNpWrbvuat0qywL2obQV0bXaRXxBF1TA9aNCFIk8BQEFREBAUCBAwjMh9/fHbOd3NyQ3NwlJAPn+Ndx7ZuYkZF5nzpnRwDAMTDLJJBMdiroVUJT79+8LBAJ1azExyc3NVbcKk4wa47ipDw0NMZnM0NDQ3t5edesyAeHz+du2bQsODp78eicGGuN0At/f3x8QEPDw4cO8vLzZs2erW52JSUtLi6en57Rp07Kzs+l0urrVmUQhxuWoLhAIgoKC7ty5c/Xq1cl2rjymT59+48aNJ0+e+Pj49Pf3q1udSRRiXDb1Tz/9NCsrKyEh4b333lO3LhMcR0fHixcv5ufnh4eHj9MJoFIZHBwcU1+LUCiU+A4bbyQlJQEAfHx81K3IG0RERAQAICYmRt2KjAm6uroSEhIWLVrEYDA0NDSoVKqtrW1ERMS9e/eEQuHo1tXb22tmZrZq1aqkpKRXr15JEmtrazt58qS7u/uWLVskyYyztXp1dfW8efOoVGpFRYWVlZW61XlT6O3tnTNnTmNjY35+/vz589WtjtoQCoUxMTFff/01n88PDQ1lMpl2dnYdHR05OTmxsbGNjY1eXl5JSUkODg6jVWNbW5uFhQVMUygUd3f3GTNmWFhYWFhYCIXCzs7OFy9eFBcXP336FMMwGo2Wn5/v6OgovqzR7YSUilAo9Pb2BgDEx8erW5c3juTkZADAnDlzhoaG1K2LehgaGgoODgYAWFpalpWVjXz7ySefAACMjY3v3r07WpW2traS7BTodDpxveOpqf/8888AAAaD0dfXp25d3jiGh4fnzJkDAIiLi1O3Luph27ZtAAAqlcpms8UKCIXC1atXw1ZXVVU1KpWSbOqurq5Sa5QygY+IiKisrCTZr4wKCQkJb7/99sjnfD7fwcHh+fPncXFxn3/+uSpVmgRy6dKl9evXm5qaPnv2zNjYWN3qqJT09HR/f38AwLZt2xITEyWJNTQ0zJw5UyAQuLq6Pnz4kEJR1OyNn8CLxc7O7osvvti2bZumpqaUsoh7Ag8PDwV1lZUHDx6I1eTkyZMAAH19/Z6eHvk6yEkUZHBw0NzcHABw6NAhdeuiUgQCAdrTHTl1FwFO8gEAZ86cUbxqOKozmczTp09/8sknfn5+Hh4eixcvDgkJOXToUF5e3vDwMMmipIzqxcXFPT09ym3c/4uLi4uRkdHI587OzqWlpeHh4b/88osq9ZkEz969e2NjY62trevr6xUfssYL165dW7NmDQDAwsLi5cuXxMKnT59mMpkAADc3t4cPHypYNRzVDx06dPDgQQWL0iJ+7eLiomAFo0JpaWlpaSkA4A9/+IO6dXmj2bBhQ2xs7IsXL27evPnBBx+oWx0Vcf78eZhYuHChVOEFCxbAREFBQWVlpdjVqFoYHx3zmTNnAAB0On358uXq1uWNZu7cuZaWlgAA6N3wJsDj8dLT02GazP6ura0tSsNtizHCOGjqQ0ND8CtbsmSJdNvDJEoGDubp6ent7e3q1kUVPHz4cGBgAKahqYIYGo2GbJb3799XomYyMg6aOpvN7ujoAAAsXbpU3bpMAuDEis/n5+TkqFsXVVBUVITSZmZmZLKYmJigvESeqqpFylp9JHV1dZmZmbW1tQ4ODqtXryYzpcEwTENDQ+zz8+fPl5eXM5lMAgcjFosFE15eXrJqy2az7969+/r1aycnp6CgIAMDA0mShYWFly5d8vDwCAoKkrUWJcHlclNTU8vLyxkMxtKlSwnc1AYHBxMTE1++fLlr166pU6cqVStXV1eYYLFYyNo8gYFGIgjJpo6iALlcbk1NzSg6zymETKb/6OhoQ0NDHx+f7du3GxkZGRkZXblyhUC+vr7e0dHR3Nw8Jydn5NtNmzZBHaZMmdLV1SWpkPfffx8AQKFQZPKcGRgYCAsLMzExCQ8P37BhAwDAzs5O0k7JzZs3tbT+2+sRfyKVkZ2dPW3aNHd398jISHt7ew0NjS+++EKs5PDwMJrvzJ07d9TdsEUQCoWGhoYAAGdnZ6VWNEZYsWIFaixZWVlksuC3qG/duqVI7XCzDb+7+fz58wsXLnz77bfHjx9PT09va2sjWZQMTf306dOWlpZo3/svf/kLAIBGozU0NEjKgr6myMhIkVfPnz/H9zhJSUliSxAIBPCHNXPmTPKqYhi2ZcuWd999t6mpCf65ePFiAICTkxOfzx8pvGzZMqTJ8uXLZapIGVRUVJiZmZ06dQr+efv2bajb5cuXRwqjWQ/k3r17ylYPTq8oFApBBz1hQBZ1AMB//vMfMlkWLVqEsvzyyy+K1I5v6qmpqfPmzdPQ0LC1tV21apWHh4eOjo6Wlpavr29paanUosiu1dlsdlRUVGpqKuqxoO2Bx+OlpKSIzdLT03Pnzh2Yhj6VeExMTPD757W1tWILaWho4HK5AIBZs2aRVBUAkJCQkJeXd+PGDWguBgDAuh49elRYWDhSHokRaKIyurq6/P39o6Oj4fYs+E15IMHuzWAw0JQEqER/aGQWCoVVVVXKrkvt4P1KSLoS4P8dbW1tiuvA5XLXrl3LZDLDwsJ6enrq6uquX7/+4MGDtra2kJCQ69evz58///Dhw1K0IlOTUCjcsGFDREQEvodDDrOSPGdzc3PRqW8wTAUPnU7PyMhYuXLl4OAgAGBoaEhsIWjwJ7lMAgA0Njbu3r07OzubRqOhh0+fPoWJJ0+ejHQB/O6771gsFqwL6qNG9u3bZ2lpido5+F/lR8rb29vHxcXt2rUL/qkC/ZGBpr6+XkF/SqFQGBUVVVlZqbwDAvX19QMCAj799FP5suObOskNILwYst4rwjfffOPm5lZdXT1lyhT8czqdnpycjGFYSkrKwYMHOzo6vvvuO4mlkJlFpKamGhgYcDgc/ENkbNi3b5/YXJ999hkUmDp1qqSSo6OjoUxsbKxYgVOnTkGBXbt2kVEV1uvl5YV/0tLSgvrj9PR0sbnu378P/0Pz588nWZEyePXqla6ursgCD4ZMAQBcXFwkZVy1ahWUuXbtmrKVTEhIgHUdPXpUwaI4HA5+DFQSnp6ecmuIHzBYLBaZLPjl/cGDB+WuGsMwuKM5b948LpcrSaarq8vU1BRWd/r0aUlipL7lb7/99sMPP8RHOBQWFqKhBi6DR3L37l2YWLJkiaSSIyMjjxw5wuPxJFkp6+vrYYLk2WZcLjcpKQn9FiGXLl2Cex7a2trvvvuu2IwLFy709/dPTU0ldm/Kzs4+c+aMn59feHg4GX1k5YcffrCyssLbDgQCwZUrV2CawIPo73//+40bNwAAKnDPQgEYIgYXOTA2Nn727FlNTY1SR/WR60eSYBjG4/HQn2I3kkaCF+Pz+fJVDTExMdmzZ09UVBS+xxGBTqcHBARAN7M//vGP77//Pn5B+v9I7Veam5sBANnZ2fiHUVFRMLuZmZlYQ1dXVxcaSH/44QeC8uHcvqWlRezbHTt2wEKOHTsmVVUMw5KTk3V0dLq7u/EPkXtvQEAAQd6jR48CyfMLDMMqKyvhEKSjo8Pj8cjoIyu///3v9+/fj3+CXLUAAATWF4FAoKenR6PRlG2BxzAsMzMT6rN27Vpl16V28I2F5KiOPwftyJEjytYQwzB8YMjnn38uVka6mWFgYCAwMBA/zvD5fGSKCw0NFTsBY7FYyHlg5EIdj7W1tbW19bRp08S+7evrgwmSUZO6urr79u3DG/zKy8uLi4thOiwsjCAvHA8J3P4bGxvh4GNlZaWvr09GH1lxdHTcsmUL/snZs2dhYvbs2U5OTpIyampqOjg4ODs7kxx5FEFPTw8m0H9nAkOlUlGapD/M8PAwSouN3Rp18N5liYmJYg0E0ifwM2bMSE1NxT+5efPm69evYXrz5s1ic6HZu7m5OfGUsrOz093dXdJb9GMiOYEPDAwMDAzEP0GxCoaGhvDkAAJNtLW1PT09JQksX778b3/7W2Nj4/79+5XUokS+6q6urmvXrsG01CVDZ2cn8QccLd6opq6jo4Mm4SRXGapv6tOnT9fR0YEWWS6Xm5eXN/KEVXkcY5ET/6xZsySNgWQW6pBHjx5JWu0D3Jerra0to5oAAIBh2IULF2A6ICAA/UbFUlRU5ObmRiCjqal54MCBxMREfEiDUrly5Qram/jwww8JJNvb2xsbG4knUKMF6uYUXIiOC/BbP5L2iUTA9wgqOz8f7wkq9loemZv60NAQGmck/fi6u7tLSkpgmvjHV11d3dzc7OPjI0kAzZPlC5tns9lNTU0wTTx7BwCwWKyxFjmHDHLu7u52dnYEkiwWS09Pj0yUpeJ0d3fDhJJWMWMK/NKS5EYmvgdUzagO/repQ/uaCDI39du3b6NWt3btWrEy+IU68ah++/ZtOzu7mTNnShJQsKmnpaXBhLm5OXEzbmhoKCsrW7dunRy1KInu7m7kJye1n8rIyFi9erVq2h5q6gQxBRMGfFMn+SN89eoVSqPQF1nBMOzLL7+0traeP3/+9evXpcrjZ6NofY1H5qaekZEBEzNmzJB0DC1ykjMzMyNeqKenpxMM6QD3Y0I/L5lA5utVq1YR79/Cbbaxc5AAACArKwuND35+fgSSAoEgPT1dZf3UGzWq402hZH6EGIYhDzktLS2ZvDzxJCYmxsTENDU1FRUVrV27VuxAjUeqgUBm7wXkcU0wSLLZbJjw9vYmMF9xOJxbt27t37+foDpra2uYkKOpt7e3I/cyqSaDs2fPrl+/Xuyrvr6+rKys1tZWJycnvHuzsrl37x5MvPXWWzY2NgSS6enpg4ODyIuGgObm5ry8vNbWVm1tbRsbm6VLl8phBOnq6oIJxY/iHx4eDgsLq6qqUt6yX19fPyQk5Msvv5QvO94dkEyIfkdHB1rSOzo66urqylcvPrRhYGCgsLBQ/G75b+D3/8XuZ8nW1Pv6+ioqKmBaUkwlhmGPHj2CaeKl49WrV62srIhDU5EBTI4JPN7dncDyBwBgsVjV1dXbt28f+aqoqMjPz2/mzJkGBgYRERGBgYGXL19WzQkZBQUFMEGsPAAgISGByWQSj7GVlZW7du3Kzc1duHChra0th8Opqqp6/fp1fHw8CjEkCep2FTdP9vb2ZmRkKPtCOENDQ7mb+oIFCzQ0/nsEI3LoIgB/nDPBbo5U8P72FAqFeL6JYVhnZyf609nZeaSMbE29tbUVLcIlzd57enpQB0NsSfrxxx83btxIvGuFRjM5zjxBJ/5pamoSj4rx8fFbtmxhMBgizxsaGvz9/ePi4kJDQzEMo9PpaWlpp06dQp6qSgXpT2DLAACUlJTcu3cPHpIvCTabvWLFCgcHh8ePH+NLY7FYfn5+NjY2Mpnu0aiueFM3MjJqbm5GDgvKQE9Pb8aMGXJnNzY2XrFixc2bNwEAdXV1UuWRGRhI2zQhBn23xsbGR44csbe3JxCura1F0yIqlSp+USyTUw5yhgUASDpiHr+oyM/Pl1QUi8WiUqn19fXENfb09MC+QI7o6J9++gmqYWlpSSCWm5urpaVVV1c38pWHh8eBAwdgms/n6+joAADgRYXEtLa2XrhwIScnR6wrIUmQ/ymKZhXLe++9t3XrVgIBPp/v6OhIp9NHXvq1detWCoUiyb9KEmj3vra2VqaM45Rff/0Vfl4ajSb1chsUYWZtbU3gudjR0ZGSkpKZmSkQCMQKwOUbtHBL1RB/iN26devEysjW1PGz6EePHomVQUZjQBg77e3tvWPHDjKVQgdmfX19WV0+//3vf0M1pk2bJkmGz+e7urru2bNn5Kvs7GxjY2N0HgY6J2zv3r3E9RYVFSG76wcffDAwMCCT2gg0DTt58qQkmbS0NBMTkxcvXhCUc+7cOSDOifXBgwewfFnPdYcDDoPBkCnX+EUgECCb0Z07d4iF0YI0OjpakkxFRQU6LMjLywte5yrC8PCwvb09nE5KBQ3jVCq1urparIzMFzm5ubnBQv/5z3+KFcCvz3/++WexMsnJyXQ6vbm5mUyNyA1e7MBLQEtLC1xUa2hoSDrBZufOnc7OzmK/6zVr1uzcuRP9CW8jBSQcoUVc1o4fPy6T2ggUdykpdvDZs2cmJiZiz6vAAzWfPXu2yMfs7OxcsWKFr69vR0cHea16e3vhPOtNcIBHIPfk4OBgArHHjx+jIb2/v1+SmIhDp6RwtPPnz2tqakoNVSwuLkYL+8OHD0sSk7mpZ2VlwXJXrlw58m1cXJyhoeE333wDKxYrU1BQYGhoKCmYdCTI3U2OAz3QQXFiB8aEhAR9fX1JK5Hdu3ejDrKvrw864dvZ2UmtVMQoQhB5SkxJSQn8qn/3u9+NnDe2trbOmTPno48+klrORx99BDWZN2/eiRMniouLFVlWoNMjv//+e7kLGY/AWx80NDQknSGFTv7S0tLKzc0lKErEx5Qg0DU4OFhPT49gdtze3o4sYuvWrSOY+cpzPSOMAAMAfPXVV2ilIRQKv//+eyqVevHiRQzDNm7cCGViYmLw1Z87d87c3Fymm7rR4v/jjz+WVdWXL1/CqdfUqVPv37+PnnO53I0bN9JoNKnzMaQ21OHrr7+WKixi7NXR0ZFVbcSRI0dgIVu3bsUvBLKzsxkMRlBQkNj5iAhoIYMwMDAICAgQiVYkyaFDh2AhklZwExUejwcdy6dMmVJQUCDydmBgAN7fqKWlJXVMOnDgAPpfaGho5OXlSZLs6elZsmSJjo7O/v37R4asl5SUoHa+Y8cO4h5czptYL168CJfQb731VlhY2KZNmxwcHBgMBppsCIXCU6dOwUMzZs2aFR4evm7dOjs7O2tr69u3b8taHQwyd3BwkEPV1tbWTZs26enpaWlpLVq0iMlkBgUFGRkZeXt7w1upyQC3uygUSmNjo1Thvr6+7du3m5qaWltbx8fHAwDa29vl0BySnJz8zjvvAACsrKyCg4OZTKaLi4uhoeGxY8fI39f1pz/9SexhSTt37pTVAgJt9e+8847sH2XcMzw8HB0dTaVSNTU1P/7444KCAi6XW1dX969//Qs2ORsbGzKDx8DAQGRkpKmpqa2t7dmzZ4mF+/v7IyMjNTU1GQxGeHh4TEzMpUuXjh075uvrC1dStra2cHwlRsqdbQRgGJaXl1dTU/P8+XMejzd37lx/f3+RUNP+/v68vLz8/PyOjg5DQ0MnJycfHx/imBOxnDt3Du79VlZWoovyZKK7uzsjI6OhoYHD4UyfPn3ZsmUEAaEiVFdXw5MzVq5cmZ2dLVO9XV1dJiYm7e3tIkcFyQqbzWaz2S0tLdra2rNnz/bz85PVKbW8vPzMmTP5+fklJSV4X+5//OMfe/bsIVkIh8OxsLAYGho6duzY7t27ZVJgwlBbW3v+/PmLFy/W1NTAvWcajbZkyZLNmzevWbNGvrgsqZSVlSUlJaWlpaHNPGNj46VLlwYGBq5fv55UpaR6M3XT19cHI4QUPL5HPvbu3Qu/KzJ9pwhlZWWamprkh18VwOPx0tLS4JHbAABXV1fyeeH+JZVKJX8m8QSGz+c3NTWJnIOibAYGBhobG+U4GWV8NHXsNzu8fHN4RRgaGoKuNaampmi1XFhYuH37djLZ09PTVa8zRCAQHD58ODg4WKxRZ3h4GE7FZ82aRb5MuJNEfJjPJGOTcXCREyQqKkpTU/Pp06e3bt1SZb1ZWVkweiE8PBy60AAAjh8/TvIk0MzMTKlurUoiLi7ur3/969WrV//85z+PfEuhUGBcgFgnSrFUVlZC5wLisIVJxijq7mtkAFo4ly1bpspK0aHLxcXF8AmHwzEwMCgsLJSaVyAQTJ069caNG0rWUTzoUmRJh+1CezLJG0swDAsNDQWTQ/q4ZTw19ZaWFhidx2azVVYp/H3TaDT0hMlk+vr6ksl79uxZGxsbdS3UIyMjp0yZEhsbK9aXMyUlhUKhhISEkCztyZMnFApFR0eH/LbFJGOK8dTUMQxLTEwEAHh4eKis/cCD6M3NzeGmVExMjL29/evXr6Vm5PF406dPl+QvqALgbVCfffaZiAmNx+PFx8dTqVR/f38Cjy4RYMC8as4/nUQZjLOmjv02Lz1x4oRqqhMKhfAI1wULFsDTOGpqashk3LBhw+LFi9Vre6+qqgoJCdHX13dyclqzZo2/v7+bm5uurq67u3tKSgr5cqDDoqenp9Rgj0nGLPLvq6uLjo4OFxcXDodTVlZGHJo6ilRXV5eXl1tYWHh4eJAJVj969OiJEyfYbDYKk1AjHA6npqamqalpeHiYwWBAZyfy2dvb299++22hUFhSUjIWPs4kcqLuvkYeSktLjYyMHB0dx+ZNoEKhcNmyZRUVFepWZBQYHBz09vbW1dUledvBJGOW8TeqQ3Jycnx9fT09PTMzM1Vw6dcby+bNm5OTky9fvuzv769uXSZRiHGzry6Ct7d3VlZWcXEx/sbSSUYXuC3/66+/TrbzCcB4beoAAC8vr8LCQh6Phz9Va5LRYmho6PHjx/n5+WROp5xk7PN/IF/6AL/4OJsAAAAASUVORK5CYII=;rotation=35;" parent="1" vertex="1">
          <mxGeometry x="160" y="280" width="132.47" height="21.02" as="geometry" />
        </mxCell>
        <mxCell id="TYrLCPMJrX0rA2hv0LJ_-17" value="" style="shape=image;verticalLabelPosition=bottom;labelBackgroundColor=default;verticalAlign=top;aspect=fixed;imageAspect=0;image=data:image/png,iVBORw0KGgoAAAANSUhEUgAAAS8AAAA1CAIAAACfhvrGAAAACXBIWXMAAA7EAAAOxAGVKw4bAAAU4UlEQVR4nO2dd1hTV9zHT9i7sgxTQIuAKIiooIBA1UfqAAriAEdB3FRFsVhbW7V1IrYOLO5RRRxVBEXheZQRRSJCZDsAAVmaKCvsJPf947w9b16SXHIjSQjy+YPncO85535Pkt+Zv3MuCcMwMMQQQwwA5KQt4LNgsVhZWVnSVvHFkZmZKW0JgxMZtsb6+noXF5cDBw5IW8iXRU9Pz8qVK/39/dva2qStZbBBktGeakVFxTfffKOrq5uZmamuri5tOV8WdXV1U6ZMMTQ0TElJ+eqrr6QtZ/Agk9YIfw0YhlGpVENDQ2nL+RIpLi52cXEZM2bMw4cPVVVVpS1nkCB7PdW2trbZs2d/+PDh7t27Q6YoLWxtba9du5adnR0UFCSLFboE4HA4PT09hJLInjWuXbs2Pz9/9+7ddnZ20tbyRTNr1qx169bdvn07KipK2loGHC0tLV5eXnp6ehwOh0AyTKa4dOkSAGDSpEksFkvaWobAmEymhYWFvLx8Tk6OtLUMFDgczp07d8zNzaF9dXZ2Cp9WlsaNdDrdxsbm48ePz58/d3R0lLacIQAA4OrVq4GBgePGjcvNzVVUVJS2HKnR0dFRWlp669aty5cvV1VVoeudnZ3KyspCZtKHNWZmZhJraj8bDw8PQbdCQkLOnz8/b968xMRECSoaAg8OhzN+/PjCwsJDhw5t2bJF2nIkzT///BMVFdXY2FhbW4thGIlEcnNzq6ysrK6uhhH60xrV1NQ6Ojo+VzIR2tvb+c7RvXr1ytbWls1m5+TkTJw4UZKShsDn+vXrCxcu1NHRKS8vHzZsmLTlSJQrV67ExMTo6OiYmZk5Ojp6enpaWFh4enqmp6fDCISsUQH/tpubW3d39+fIJYqg6fJdu3ax2Ww3N7chUxxo+Pr66uvr0+n0I0eO/Pbbb9KWI1GCgoKCgoL6LTvxDGX7GTqdDsckp0+flraWIfiwdetWAICpqSmbzZa2FunDPdoiNIsjGyscly9f7unpUVFRCQgIkLaWIfiwZMkSAMC7d+9SU1OlrUWGkQ1rPHfuHABgxowZQ35YAxM7OztjY2MAwJkzZ6StRYaRAWvMzc0tLCwEAEyfPl3aWoYQiJeXFwAgMTGRwWBIW4usIgPWmJycDAOenp7SVTIEDjNmzAAA9PT0ZGRkSFuLrNLHnCov2dnZGRkZDAbD3t7ez89PTU0NPz6GYSQSie+t1tbW2NhYJpO5ZcsWLS0tQTlQKBQAgJaWlgiucFQqNT09nU6nQ7U4uz2eP39+/fp1Z2dnPz8/ok+RMK2trbdu3SosLCSTyZ6enjiTzF1dXadOnaqvr9+0adPw4cPFqgr5Y1AoFH9/f7E+a9Ai/IRPR0fHwoULdXV1Fy1aFBgYCACwtLQsKirCSXL37l0ymWxtbf3p06det5hM5pgxY6CGGTNmCMqhp6dHQ0MDAAA3bQhPZ2dnYGCgtrZ2UFAQnGMYNWpUQUEB38ipqakKCv9bMd28eZPQgyRMSkqKoaGhk5NTWFiYpaUliUSKiIjgG5PNZqPehJ2dHYfDEaswDoejqakJAHBwcBDrgwY+Is+pErDGpUuXuri41NXVwX/d3NzgRy/IZZTJZKK1YN6f+Pnz57krhbKyMr6ZPHv2DEYIDQ0VXiqGYSEhIW5ubjU1NfDfadOmAQDs7e17enp4I3OPSHGqBqlTXFysp6eHlnkePXoENd+4cYM3MuxTIB4/fixuea6urgAAOTm5pqYmcT9rICP2FY6//vorLS0tOTkZbWKClkaj0XJzc/kmycjIaGpqguFx48b1umtmZtbLGvlmAudvAADW1tZCSgUAxMTEZGVlJScnw4k+AADsCefn5z9//pw3PoqGo0TqNDU1+fj47Nu3LzQ0FF5B3Xu+M5lkMhk1+EAi5bKwsAAAcDic0tJScT9rUCLUuLGiomLr1q137tzhHt2VlJSgwOTJk3lToZrbwMBg9OjRve56enru379/27Zt8F9BHj9v376FAT09PWGkAgCqq6vDw8NTUlJgFxfy6tUrGHj58qWzs3OvJEeOHKFQKPBZXV1dQj5IwkRGRhobGyNTBP+/ULzxLS0tDx06tGnTJvivBMplYmICA5WVlbwfMiE4HM4PP/xQUlLCYrH6Qxof1NTUfH19165dK6b8RUAoazxy5IiTk9Ps2bPRlbq6OmQnBgYGfFOlpaXBAOwl8hIZGZmWlpaSkgIAELRvGD1FeAdIqJZ7Ara+vr68vByGdXV1eZMMGzbs8uXL06ZNY7PZ3O0kpKura8+ePdXV1Z8+fWIwGO/fv582bVqvnra4odPply5dunv3LvdF1BflWygAwMaNG1NTU+GkNG+5+h1kjehbE5mWlpZTp06JzxQhra2tMmaNLS0t58+fP3HiBPfFuLg4uLdDSUmJby3Y3Nz84sULGMbZlrFt27aUlBQSiWRpack3QmVlJQwIue7f2tp65syZmJgY7ovXr19HauFwl5epU6f6+PjcunULzS0hWlpa8vPzm5qa8vLymEwmAIC7YpIMJ06cMDEx4R7fslismzdvwjBcXeDL/v37oTXylqvfQfXy51vjsGHDysvL37x5I9a2kXcAJWX6HFnGxcUpKys3NzdzX0TF8PHx4ZsqKSkJPaKkpERQ5j09PQoKCqNHjxYUAf2G8vLy+pQqSO2ECRNgJr6+vjhp9+7dCwCIiooSFGHz5s0wH8nPu44ePfqnn37ivsK9rezFixeCErJYLFVVVQ0NDXHPqWIYdv/+fahn/vz54n7WQEbkWZy+20YVFZXIyEjuEWN+fj6aXFm2bBnfVGhHib6+vo2NjaDMFRQUDAwMnJycBEVob2+HASF7qrxqCwsL8/LyYBguzAgCWj4yXV5ycnJgQFDfW3zY2tqGhIRwX7lw4QIM2NjY2NvbC0ooLy9vZWWlqakpaNW3H0H7b9C3NgQxRDD9iIgImFZXV7erq4tvHLQWHBAQgJMVh8NRV1c/fvy4oAhozfrjx48iSMX+214AANDU1Gxvb8eJee7cOSUlJUFx2tvblZSUAAC2traiKelHGhsboRgAwB9//IEfecSIEb/88osEVFGpVCjJw8NDAo8bsEhuDweGYfHx8cjS0G+Cm+bmZhqNhr4YnNzKysra2tpwmho0bOD7IGHUXr16FYZ9fX3xzxrMzc2dNGmSoDhPnz6FE7/u7u4iKOlfbt68iWahFy1ahBOTwWBUV1dLRjNqfomelTYEhLA1Pnv2rKamBoYF/Q4oFAo6vwP/d5CWlmZsbIwzmEaedy0tLUSlAgCoVCpSi99NBQBQKBSc6RDU98avXyQDmr9xcnIaNWoUTkwKhaKqqjp16lQJqGpuboaBPv0lh+ALYWu8ffs2DAwfPlzQ/CT64erp6eFP5T169Ojbb7/FifCZ1ojU6uvr41gaAKCqqqqgoGDBggWCIqBCSX7Q2Ivm5ma0lttnFZOUlDR37lzJmAeyxqHT30WDsDWiydK5c+fKyfFPjlYaPTw8cCYPuru7U1JS4E4cQaDvFX3ThEATj7Nnz+Z2TOEFrm0Iqjs6OjrgoMjGxoZMJougpB958OAB6gp6e3vjxGSxWImJiThVTP8y1DZ+JsT2cHz8+BG54Ahqajo7OwsKCmAYv5uamprKYrHw20ZTU1M4BBXBGhkMBnJS6bN7eeHChYULFwq6iz9ohO6B6urqXl5e2traRHUS5fHjxzBgZmaGzu3kS2JiYldXlzCro7W1tVlZWQ0NDUpKSubm5p6eniIM1JEjJHIDEBk2mx0YGFhaWiq+IaiamlpAQADyBhsIELNGbidPQRt5ioqK0NQL/nAlPj4+ICAAvx6Fro9ApJ4qt1r87iWFQnn9+vXq1asFRRA0aMzNzQ0PD6+pqXF2dqbT6REREc+ePRO314vwCy0xMTGhoaH4n3BJScmmTZsyMzOnTp1qYWHR2NhYWlpKp9Ojo6OXL19OSBiqMdG3JjJtbW1JSUniPq9QU1NThq2xtrYWBpSVlb/++mv8OAAAnAkGOp1+8+bNBw8e4D8R1f0i7Civr6+HAXl5efw2JDo6OiQkBKcLynfQePr06d9+++3AgQNBQUFlZWUbN26sr68/fvz4vn37iEolBCqXoK8AQqPRHj9+fPHiRZw4VCp15syZVlZWRUVF3LlRKBRvb29zc3NCk7Gobfx8a9TS0qqtra2urhafL46qqurIkSPFlLloELNG9NEMGzZM0IAQvdZPRUUFx53t5MmTFhYWfX7Z6Cfy+vVrQlIBlye6gYGBoCEuAIBCody7dw8nfzRotLKyQv60u3btSkhIePr0KdyMEhwcDN/rit+Gv3//Pi0tzcjIaOrUqfjjWBxQuYyMjHCiRURELF26FKfTyGKxVqxYIScnl5ycrK+vz33r4sWLLS0tSUlJhKyxoqICBvCrCSHR1taWQLd/QEHsB4G+fpxDVtHGAg6Hw+Fw+JrBx48f//zzz9jY2D4dRJydnUkkEoZhfLcp4IMsB+e4dBaLFR4eHh4ejlOd9xo0Yhi2efPmnJyc9PR0VN3Iy8vDv4sXLxaUT15e3owZMxobGwEAXl5eCQkJwp9726tcDQ0N+OVKSEig0Wj4DePVq1eLi4vnz5/fyxSzs7PPnj0LAIC7h4WnuLgYAEAmk/EXXQY9mMhv0yDkZNDY2IjetVBRUcEbgcFgcHulVVVV8c1n1apVkydPFtJzEs5zjhgxgpBUDMPq6uqgkZBIJEEeNhs2bHBwcBDkUQTZsWMHLE5cXFxnZ+eyZcvc3d2ZTCZ3nHfv3h09ejQ3Nxcnn7lz53J/8seOHSNaIgjadhAZGck3Qnl5uba2Nt8tyNysX78eAGBjY9Or+J8+fZo5c+acOXMI+T+1tbXBuvULd1LFMIx7SoX31AscCHvGbd++HT5m7969vW5xOBxvb29HR8d169YJioNhWGxsrK6ubmVlpZBPRJMr7969I6oWHXJz8uRJ3rsxMTFqamqlpaX4maBl1fv370+cOHHVqlUdHR1ElWAY5uDgwG2NEyZMECETDMNoNBrscYwYMaK7u7vX3YaGhnHjxgUHB/eZT3BwMFQyfvz448eP5+Xl8T0YQUjQ4VRHjx4VOZNBQGFhIbc716lTp4RPS9ga2Ww2XJNQU1NLSkpC11tbW7///nsdHZ2XL182NTVB9xotLa3U1FQUp729/eeff9bW1n748KHwT7xy5Qpqmoiqra+vNzU1BQAMHz78yZMn3GqXLVumoaGRlpaGnwNyTwUAyMnJeXl5wY4rUSUYhvWavlNWVhYhE8iePXtgJitWrOD2hExJSSGTyX5+fvitPeTOnTu9Okrq6uq+vr4pKSkiSNq5cyfMJD8/X4TkMgqdTg8LC1u/fv2aNWuCgoJcXV15V4bs7e0DAgJWrly5bt26sLCwjIwMQbmJ4jXe1tZ28OBBOAPp6OgYHBwcEBBAJpMnTpyI2pnW1taIiAgFBQUSiTRlypQVK1bMmTNHX1/f1dX17du3hB7X0tICfQBWr14tgtqGhobly5erqqoqKCi4uLiEhob6+flpaWm5u7u/evWqz+QPHz6En6mDg8OsWbPgVhIdHZ1Vq1Z9+PCBkJL29vbVq1fr6OiYmppGR0cDABgMhgglgsTFxY0dOxYAYGJi4u/vHxoaOmHCBE1NzcOHDwt//P727dv5Duw3bNhAdAcWHFSPHTuWeFFkmLKyMmVlZR0dHTKZbGJiYmZmZmFhMXLkyFH/MXLkSHNz8xEjRhgaGurp6ampqeHskRD9/Y0dHR0ZGRmVlZWVlZUkEsnV1XXWrFm95gkZDEZ6enpBQUFra6uenp6bm5urqyvO9KYg4LviDA0Na2pqREgOAGhubk5KSqqqqmpsbDQyMpo+fTrOLiRufv31199//x0AcO3atQULFnR1dd24cSMsLKy5udnY2DgpKalX/1NImpqatLW1GQyGoG37QkKlUqlUal1dnZKSko2Njbe3N1GvtMLCwnPnzmVnZ9NoNO7TOg4ePIi2v/RJY2OjgYFBd3f34cOHw8PDCQkY4v+QYD0iOnDxAADQZ8ey30GDxoaGBnQRuf65ubmJlm1BQYG8vPyAeocMk8m8ffv2rFmzYNEcHR2FTxsbGwsAUFRUfP/+vfgUDnpkwxoxDLO1tQWidlZFBg0abWxsuK9zOBzYpmlqanJfX7hwITozEp/ExEQrK6v+1Co0LBZr9+7d/v7+fM90ZLPZsM9pbW0tfJ7w7Eb8oxWG6BOZscbTp08DADQ0NAhNGX8maNC4Zs0a7utsNhu6m3H/ZGk0mqqqaltbmzA5r127duXKlf0sVzj2798PC+Xu7s43AnwH4+LFi4XMsLi4GK5tUKnUflP5RSID7+GABAcHW1tbM5nMXidQiRXkENfLJYVOp8PDJsaPH48u/v333/7+/sJsX2Cz2f/+++93333Xn1qFBhVK0IgXHkUnvJMqPHzA19eX70GeQxBA2tUBAeD5hXp6ekK2P58PGjT26n9yOBzo5IDazObmZg0NDZzTori5cOGCubm5tAaNYWFhurq6UVFRfNdp4uPj5eTk8M9P4ebly5dycnLKysrCTFAPgY8sWSOGYXBz7Y8//iiBZ3V2dsJBo6WlJe/dDRs2gP9mcXp6eubNmyekDwqTyTQyMrp48WI/yxUa+PqAzZs395pxYTKZ0dHRioqKPj4+wrs3wA2We/bsEYPSLw4Zs0YGg2FsbKygoECj0cT9LCaTCU8rj46O5r3b1tYGDyJxdXWFBwsI2WIvWbIEHqPc33oJUFpaCvey2dvbz5s3z8fHZ9KkSSoqKk5OTvHx8cLnA88cmjJlimjuEEP0QvT1RmmRlZXl4eFhZ2eXlZUl2tFVwvPmzZvKysqZM2cKivD69euioiIjIyMhD7rfu3fv8ePHqVQq9BCSLo2NjW/evKmpqWGz2WQy2crKitCxBgwGY8yYMRwOh0ajDYTiDAakXR2IAnzx+JIlS6QthBgcDmf69OnFxcXSFtIPdHV1ubu7q6ioUCgUaWsZPMikNWIYFhUVBQDYuXOntIV8oSxfvlxRUTEhIUHaQgYVsmqNGIYdO3ZMXl7+7Nmz0hbyxbFjxw4NDY179+5JW8hgQ2bWG3kJCwtLTU198uSJtIV8WXR3dxcVFWVnZ0v+1UCDnv8BCfUsxeKSBpIAAAAASUVORK5CYII=;rotation=-32;" parent="1" vertex="1">
          <mxGeometry x="140" y="440" width="131.49" height="23" as="geometry" />
        </mxCell>
        <mxCell id="TYrLCPMJrX0rA2hv0LJ_-18" style="rounded=0;orthogonalLoop=1;jettySize=auto;html=1;exitX=1;exitY=0.5;exitDx=0;exitDy=0;entryX=0;entryY=0;entryDx=0;entryDy=0;" parent="1" source="TYrLCPMJrX0rA2hv0LJ_-19" target="TYrLCPMJrX0rA2hv0LJ_-22" edge="1">
          <mxGeometry relative="1" as="geometry" />
        </mxCell>
        <mxCell id="TYrLCPMJrX0rA2hv0LJ_-19" value="&lt;div&gt;v&lt;sub&gt;i&lt;br&gt;&lt;/sub&gt;&lt;/div&gt;&lt;sub&gt;value:1&lt;/sub&gt;" style="ellipse;whiteSpace=wrap;html=1;aspect=fixed;fontSize=20;" parent="1" vertex="1">
          <mxGeometry x="630" y="210" width="80" height="80" as="geometry" />
        </mxCell>
        <mxCell id="TYrLCPMJrX0rA2hv0LJ_-20" style="rounded=0;orthogonalLoop=1;jettySize=auto;html=1;exitX=1;exitY=0.5;exitDx=0;exitDy=0;entryX=0;entryY=1;entryDx=0;entryDy=0;" parent="1" source="TYrLCPMJrX0rA2hv0LJ_-21" target="TYrLCPMJrX0rA2hv0LJ_-22" edge="1">
          <mxGeometry relative="1" as="geometry" />
        </mxCell>
        <mxCell id="TYrLCPMJrX0rA2hv0LJ_-21" value="&lt;div&gt;v&lt;sub&gt;k&lt;br&gt;&lt;/sub&gt;&lt;/div&gt;&lt;sub&gt;value:0.5&lt;/sub&gt;" style="ellipse;whiteSpace=wrap;html=1;aspect=fixed;fontSize=20;" parent="1" vertex="1">
          <mxGeometry x="630" y="470" width="80" height="80" as="geometry" />
        </mxCell>
        <mxCell id="TYrLCPMJrX0rA2hv0LJ_-22" value="&lt;div&gt;v&lt;sub&gt;s&lt;br&gt;&lt;/sub&gt;&lt;/div&gt;&lt;sub&gt;value:1&lt;/sub&gt;" style="ellipse;whiteSpace=wrap;html=1;aspect=fixed;fontSize=20;" parent="1" vertex="1">
          <mxGeometry x="850" y="350" width="80" height="80" as="geometry" />
        </mxCell>
        <mxCell id="TYrLCPMJrX0rA2hv0LJ_-23" value="" style="shape=image;verticalLabelPosition=bottom;labelBackgroundColor=default;verticalAlign=top;aspect=fixed;imageAspect=0;image=data:image/png,iVBORw0KGgoAAAANSUhEUgAAAU4AAAA1CAIAAACho5WIAAAACXBIWXMAAA7EAAAOxAGVKw4bAAAY70lEQVR4nO2de1xTR/bAh0B4BgIIBgW2ILJoqSIgAkpF66NFlKdoAVetxtoKuNpWrbvuat0qywL2obQV0bXaRXxBF1TA9aNCFIk8BQEFREBAUCBAwjMh9/fHbOd3NyQ3NwlJAPn+Ndx7ZuYkZF5nzpnRwDAMTDLJJBMdiroVUJT79+8LBAJ1azExyc3NVbcKk4wa47ipDw0NMZnM0NDQ3t5edesyAeHz+du2bQsODp78eicGGuN0At/f3x8QEPDw4cO8vLzZs2erW52JSUtLi6en57Rp07Kzs+l0urrVmUQhxuWoLhAIgoKC7ty5c/Xq1cl2rjymT59+48aNJ0+e+Pj49Pf3q1udSRRiXDb1Tz/9NCsrKyEh4b333lO3LhMcR0fHixcv5ufnh4eHj9MJoFIZHBwcU1+LUCiU+A4bbyQlJQEAfHx81K3IG0RERAQAICYmRt2KjAm6uroSEhIWLVrEYDA0NDSoVKqtrW1ERMS9e/eEQuHo1tXb22tmZrZq1aqkpKRXr15JEmtrazt58qS7u/uWLVskyYyztXp1dfW8efOoVGpFRYWVlZW61XlT6O3tnTNnTmNjY35+/vz589WtjtoQCoUxMTFff/01n88PDQ1lMpl2dnYdHR05OTmxsbGNjY1eXl5JSUkODg6jVWNbW5uFhQVMUygUd3f3GTNmWFhYWFhYCIXCzs7OFy9eFBcXP336FMMwGo2Wn5/v6OgovqzR7YSUilAo9Pb2BgDEx8erW5c3juTkZADAnDlzhoaG1K2LehgaGgoODgYAWFpalpWVjXz7ySefAACMjY3v3r07WpW2traS7BTodDpxveOpqf/8888AAAaD0dfXp25d3jiGh4fnzJkDAIiLi1O3Luph27ZtAAAqlcpms8UKCIXC1atXw1ZXVVU1KpWSbOqurq5Sa5QygY+IiKisrCTZr4wKCQkJb7/99sjnfD7fwcHh+fPncXFxn3/+uSpVmgRy6dKl9evXm5qaPnv2zNjYWN3qqJT09HR/f38AwLZt2xITEyWJNTQ0zJw5UyAQuLq6Pnz4kEJR1OyNn8CLxc7O7osvvti2bZumpqaUsoh7Ag8PDwV1lZUHDx6I1eTkyZMAAH19/Z6eHvk6yEkUZHBw0NzcHABw6NAhdeuiUgQCAdrTHTl1FwFO8gEAZ86cUbxqOKozmczTp09/8sknfn5+Hh4eixcvDgkJOXToUF5e3vDwMMmipIzqxcXFPT09ym3c/4uLi4uRkdHI587OzqWlpeHh4b/88osq9ZkEz969e2NjY62trevr6xUfssYL165dW7NmDQDAwsLi5cuXxMKnT59mMpkAADc3t4cPHypYNRzVDx06dPDgQQWL0iJ+7eLiomAFo0JpaWlpaSkA4A9/+IO6dXmj2bBhQ2xs7IsXL27evPnBBx+oWx0Vcf78eZhYuHChVOEFCxbAREFBQWVlpdjVqFoYHx3zmTNnAAB0On358uXq1uWNZu7cuZaWlgAA6N3wJsDj8dLT02GazP6ura0tSsNtizHCOGjqQ0ND8CtbsmSJdNvDJEoGDubp6ent7e3q1kUVPHz4cGBgAKahqYIYGo2GbJb3799XomYyMg6aOpvN7ujoAAAsXbpU3bpMAuDEis/n5+TkqFsXVVBUVITSZmZmZLKYmJigvESeqqpFylp9JHV1dZmZmbW1tQ4ODqtXryYzpcEwTENDQ+zz8+fPl5eXM5lMAgcjFosFE15eXrJqy2az7969+/r1aycnp6CgIAMDA0mShYWFly5d8vDwCAoKkrUWJcHlclNTU8vLyxkMxtKlSwnc1AYHBxMTE1++fLlr166pU6cqVStXV1eYYLFYyNo8gYFGIgjJpo6iALlcbk1NzSg6zymETKb/6OhoQ0NDHx+f7du3GxkZGRkZXblyhUC+vr7e0dHR3Nw8Jydn5NtNmzZBHaZMmdLV1SWpkPfffx8AQKFQZPKcGRgYCAsLMzExCQ8P37BhAwDAzs5O0k7JzZs3tbT+2+sRfyKVkZ2dPW3aNHd398jISHt7ew0NjS+++EKs5PDwMJrvzJ07d9TdsEUQCoWGhoYAAGdnZ6VWNEZYsWIFaixZWVlksuC3qG/duqVI7XCzDb+7+fz58wsXLnz77bfHjx9PT09va2sjWZQMTf306dOWlpZo3/svf/kLAIBGozU0NEjKgr6myMhIkVfPnz/H9zhJSUliSxAIBPCHNXPmTPKqYhi2ZcuWd999t6mpCf65ePFiAICTkxOfzx8pvGzZMqTJ8uXLZapIGVRUVJiZmZ06dQr+efv2bajb5cuXRwqjWQ/k3r17ylYPTq8oFApBBz1hQBZ1AMB//vMfMlkWLVqEsvzyyy+K1I5v6qmpqfPmzdPQ0LC1tV21apWHh4eOjo6Wlpavr29paanUosiu1dlsdlRUVGpqKuqxoO2Bx+OlpKSIzdLT03Pnzh2Yhj6VeExMTPD757W1tWILaWho4HK5AIBZs2aRVBUAkJCQkJeXd+PGDWguBgDAuh49elRYWDhSHokRaKIyurq6/P39o6Oj4fYs+E15IMHuzWAw0JQEqER/aGQWCoVVVVXKrkvt4P1KSLoS4P8dbW1tiuvA5XLXrl3LZDLDwsJ6enrq6uquX7/+4MGDtra2kJCQ69evz58///Dhw1K0IlOTUCjcsGFDREQEvodDDrOSPGdzc3PRqW8wTAUPnU7PyMhYuXLl4OAgAGBoaEhsIWjwJ7lMAgA0Njbu3r07OzubRqOhh0+fPoWJJ0+ejHQB/O6771gsFqwL6qNG9u3bZ2lpido5+F/lR8rb29vHxcXt2rUL/qkC/ZGBpr6+XkF/SqFQGBUVVVlZqbwDAvX19QMCAj799FP5suObOskNILwYst4rwjfffOPm5lZdXT1lyhT8czqdnpycjGFYSkrKwYMHOzo6vvvuO4mlkJlFpKamGhgYcDgc/ENkbNi3b5/YXJ999hkUmDp1qqSSo6OjoUxsbKxYgVOnTkGBXbt2kVEV1uvl5YV/0tLSgvrj9PR0sbnu378P/0Pz588nWZEyePXqla6ursgCD4ZMAQBcXFwkZVy1ahWUuXbtmrKVTEhIgHUdPXpUwaI4HA5+DFQSnp6ecmuIHzBYLBaZLPjl/cGDB+WuGsMwuKM5b948LpcrSaarq8vU1BRWd/r0aUlipL7lb7/99sMPP8RHOBQWFqKhBi6DR3L37l2YWLJkiaSSIyMjjxw5wuPxJFkp6+vrYYLk2WZcLjcpKQn9FiGXLl2Cex7a2trvvvuu2IwLFy709/dPTU0ldm/Kzs4+c+aMn59feHg4GX1k5YcffrCyssLbDgQCwZUrV2CawIPo73//+40bNwAAKnDPQgEYIgYXOTA2Nn727FlNTY1SR/WR60eSYBjG4/HQn2I3kkaCF+Pz+fJVDTExMdmzZ09UVBS+xxGBTqcHBARAN7M//vGP77//Pn5B+v9I7Veam5sBANnZ2fiHUVFRMLuZmZlYQ1dXVxcaSH/44QeC8uHcvqWlRezbHTt2wEKOHTsmVVUMw5KTk3V0dLq7u/EPkXtvQEAAQd6jR48CyfMLDMMqKyvhEKSjo8Pj8cjoIyu///3v9+/fj3+CXLUAAATWF4FAoKenR6PRlG2BxzAsMzMT6rN27Vpl16V28I2F5KiOPwftyJEjytYQwzB8YMjnn38uVka6mWFgYCAwMBA/zvD5fGSKCw0NFTsBY7FYyHlg5EIdj7W1tbW19bRp08S+7evrgwmSUZO6urr79u3DG/zKy8uLi4thOiwsjCAvHA8J3P4bGxvh4GNlZaWvr09GH1lxdHTcsmUL/snZs2dhYvbs2U5OTpIyampqOjg4ODs7kxx5FEFPTw8m0H9nAkOlUlGapD/M8PAwSouN3Rp18N5liYmJYg0E0ifwM2bMSE1NxT+5efPm69evYXrz5s1ic6HZu7m5OfGUsrOz093dXdJb9GMiOYEPDAwMDAzEP0GxCoaGhvDkAAJNtLW1PT09JQksX778b3/7W2Nj4/79+5XUokS+6q6urmvXrsG01CVDZ2cn8QccLd6opq6jo4Mm4SRXGapv6tOnT9fR0YEWWS6Xm5eXN/KEVXkcY5ET/6xZsySNgWQW6pBHjx5JWu0D3Jerra0to5oAAIBh2IULF2A6ICAA/UbFUlRU5ObmRiCjqal54MCBxMREfEiDUrly5Qram/jwww8JJNvb2xsbG4knUKMF6uYUXIiOC/BbP5L2iUTA9wgqOz8f7wkq9loemZv60NAQGmck/fi6u7tLSkpgmvjHV11d3dzc7OPjI0kAzZPlC5tns9lNTU0wTTx7BwCwWKyxFjmHDHLu7u52dnYEkiwWS09Pj0yUpeJ0d3fDhJJWMWMK/NKS5EYmvgdUzagO/repQ/uaCDI39du3b6NWt3btWrEy+IU68ah++/ZtOzu7mTNnShJQsKmnpaXBhLm5OXEzbmhoKCsrW7dunRy1KInu7m7kJye1n8rIyFi9erVq2h5q6gQxBRMGfFMn+SN89eoVSqPQF1nBMOzLL7+0traeP3/+9evXpcrjZ6NofY1H5qaekZEBEzNmzJB0DC1ykjMzMyNeqKenpxMM6QD3Y0I/L5lA5utVq1YR79/Cbbaxc5AAACArKwuND35+fgSSAoEgPT1dZf3UGzWq402hZH6EGIYhDzktLS2ZvDzxJCYmxsTENDU1FRUVrV27VuxAjUeqgUBm7wXkcU0wSLLZbJjw9vYmMF9xOJxbt27t37+foDpra2uYkKOpt7e3I/cyqSaDs2fPrl+/Xuyrvr6+rKys1tZWJycnvHuzsrl37x5MvPXWWzY2NgSS6enpg4ODyIuGgObm5ry8vNbWVm1tbRsbm6VLl8phBOnq6oIJxY/iHx4eDgsLq6qqUt6yX19fPyQk5Msvv5QvO94dkEyIfkdHB1rSOzo66urqylcvPrRhYGCgsLBQ/G75b+D3/8XuZ8nW1Pv6+ioqKmBaUkwlhmGPHj2CaeKl49WrV62srIhDU5EBTI4JPN7dncDyBwBgsVjV1dXbt28f+aqoqMjPz2/mzJkGBgYRERGBgYGXL19WzQkZBQUFMEGsPAAgISGByWQSj7GVlZW7du3Kzc1duHChra0th8Opqqp6/fp1fHw8CjEkCep2FTdP9vb2ZmRkKPtCOENDQ7mb+oIFCzQ0/nsEI3LoIgB/nDPBbo5U8P72FAqFeL6JYVhnZyf609nZeaSMbE29tbUVLcIlzd57enpQB0NsSfrxxx83btxIvGuFRjM5zjxBJ/5pamoSj4rx8fFbtmxhMBgizxsaGvz9/ePi4kJDQzEMo9PpaWlpp06dQp6qSgXpT2DLAACUlJTcu3cPHpIvCTabvWLFCgcHh8ePH+NLY7FYfn5+NjY2Mpnu0aiueFM3MjJqbm5GDgvKQE9Pb8aMGXJnNzY2XrFixc2bNwEAdXV1UuWRGRhI2zQhBn23xsbGR44csbe3JxCura1F0yIqlSp+USyTUw5yhgUASDpiHr+oyM/Pl1QUi8WiUqn19fXENfb09MC+QI7o6J9++gmqYWlpSSCWm5urpaVVV1c38pWHh8eBAwdgms/n6+joAADgRYXEtLa2XrhwIScnR6wrIUmQ/ymKZhXLe++9t3XrVgIBPp/v6OhIp9NHXvq1detWCoUiyb9KEmj3vra2VqaM45Rff/0Vfl4ajSb1chsUYWZtbU3gudjR0ZGSkpKZmSkQCMQKwOUbtHBL1RB/iN26devEysjW1PGz6EePHomVQUZjQBg77e3tvWPHDjKVQgdmfX19WV0+//3vf0M1pk2bJkmGz+e7urru2bNn5Kvs7GxjY2N0HgY6J2zv3r3E9RYVFSG76wcffDAwMCCT2gg0DTt58qQkmbS0NBMTkxcvXhCUc+7cOSDOifXBgwewfFnPdYcDDoPBkCnX+EUgECCb0Z07d4iF0YI0OjpakkxFRQU6LMjLywte5yrC8PCwvb09nE5KBQ3jVCq1urparIzMFzm5ubnBQv/5z3+KFcCvz3/++WexMsnJyXQ6vbm5mUyNyA1e7MBLQEtLC1xUa2hoSDrBZufOnc7OzmK/6zVr1uzcuRP9CW8jBSQcoUVc1o4fPy6T2ggUdykpdvDZs2cmJiZiz6vAAzWfPXu2yMfs7OxcsWKFr69vR0cHea16e3vhPOtNcIBHIPfk4OBgArHHjx+jIb2/v1+SmIhDp6RwtPPnz2tqakoNVSwuLkYL+8OHD0sSk7mpZ2VlwXJXrlw58m1cXJyhoeE333wDKxYrU1BQYGhoKCmYdCTI3U2OAz3QQXFiB8aEhAR9fX1JK5Hdu3ejDrKvrw864dvZ2UmtVMQoQhB5SkxJSQn8qn/3u9+NnDe2trbOmTPno48+klrORx99BDWZN2/eiRMniouLFVlWoNMjv//+e7kLGY/AWx80NDQknSGFTv7S0tLKzc0lKErEx5Qg0DU4OFhPT49gdtze3o4sYuvWrSOY+cpzPSOMAAMAfPXVV2ilIRQKv//+eyqVevHiRQzDNm7cCGViYmLw1Z87d87c3Fymm7rR4v/jjz+WVdWXL1/CqdfUqVPv37+PnnO53I0bN9JoNKnzMaQ21OHrr7+WKixi7NXR0ZFVbcSRI0dgIVu3bsUvBLKzsxkMRlBQkNj5iAhoIYMwMDAICAgQiVYkyaFDh2AhklZwExUejwcdy6dMmVJQUCDydmBgAN7fqKWlJXVMOnDgAPpfaGho5OXlSZLs6elZsmSJjo7O/v37R4asl5SUoHa+Y8cO4h5czptYL168CJfQb731VlhY2KZNmxwcHBgMBppsCIXCU6dOwUMzZs2aFR4evm7dOjs7O2tr69u3b8taHQwyd3BwkEPV1tbWTZs26enpaWlpLVq0iMlkBgUFGRkZeXt7w1upyQC3uygUSmNjo1Thvr6+7du3m5qaWltbx8fHAwDa29vl0BySnJz8zjvvAACsrKyCg4OZTKaLi4uhoeGxY8fI39f1pz/9SexhSTt37pTVAgJt9e+8847sH2XcMzw8HB0dTaVSNTU1P/7444KCAi6XW1dX969//Qs2ORsbGzKDx8DAQGRkpKmpqa2t7dmzZ4mF+/v7IyMjNTU1GQxGeHh4TEzMpUuXjh075uvrC1dStra2cHwlRsqdbQRgGJaXl1dTU/P8+XMejzd37lx/f3+RUNP+/v68vLz8/PyOjg5DQ0MnJycfHx/imBOxnDt3Du79VlZWoovyZKK7uzsjI6OhoYHD4UyfPn3ZsmUEAaEiVFdXw5MzVq5cmZ2dLVO9XV1dJiYm7e3tIkcFyQqbzWaz2S0tLdra2rNnz/bz85PVKbW8vPzMmTP5+fklJSV4X+5//OMfe/bsIVkIh8OxsLAYGho6duzY7t27ZVJgwlBbW3v+/PmLFy/W1NTAvWcajbZkyZLNmzevWbNGvrgsqZSVlSUlJaWlpaHNPGNj46VLlwYGBq5fv55UpaR6M3XT19cHI4QUPL5HPvbu3Qu/KzJ9pwhlZWWamprkh18VwOPx0tLS4JHbAABXV1fyeeH+JZVKJX8m8QSGz+c3NTWJnIOibAYGBhobG+U4GWV8NHXsNzu8fHN4RRgaGoKuNaampmi1XFhYuH37djLZ09PTVa8zRCAQHD58ODg4WKxRZ3h4GE7FZ82aRb5MuJNEfJjPJGOTcXCREyQqKkpTU/Pp06e3bt1SZb1ZWVkweiE8PBy60AAAjh8/TvIk0MzMTKlurUoiLi7ur3/969WrV//85z+PfEuhUGBcgFgnSrFUVlZC5wLisIVJxijq7mtkAFo4ly1bpspK0aHLxcXF8AmHwzEwMCgsLJSaVyAQTJ069caNG0rWUTzoUmRJh+1CezLJG0swDAsNDQWTQ/q4ZTw19ZaWFhidx2azVVYp/H3TaDT0hMlk+vr6ksl79uxZGxsbdS3UIyMjp0yZEhsbK9aXMyUlhUKhhISEkCztyZMnFApFR0eH/LbFJGOK8dTUMQxLTEwEAHh4eKis/cCD6M3NzeGmVExMjL29/evXr6Vm5PF406dPl+QvqALgbVCfffaZiAmNx+PFx8dTqVR/f38Cjy4RYMC8as4/nUQZjLOmjv02Lz1x4oRqqhMKhfAI1wULFsDTOGpqashk3LBhw+LFi9Vre6+qqgoJCdHX13dyclqzZo2/v7+bm5uurq67u3tKSgr5cqDDoqenp9Rgj0nGLPLvq6uLjo4OFxcXDodTVlZGHJo6ilRXV5eXl1tYWHh4eJAJVj969OiJEyfYbDYKk1AjHA6npqamqalpeHiYwWBAZyfy2dvb299++22hUFhSUjIWPs4kcqLuvkYeSktLjYyMHB0dx+ZNoEKhcNmyZRUVFepWZBQYHBz09vbW1dUledvBJGOW8TeqQ3Jycnx9fT09PTMzM1Vw6dcby+bNm5OTky9fvuzv769uXSZRiHGzry6Ct7d3VlZWcXEx/sbSSUYXuC3/66+/TrbzCcB4beoAAC8vr8LCQh6Phz9Va5LRYmho6PHjx/n5+WROp5xk7PN/IF/6AL/4OJsAAAAASUVORK5CYII=;rotation=36;" parent="1" vertex="1">
          <mxGeometry x="730" y="280" width="132.47" height="21.02" as="geometry" />
        </mxCell>
        <mxCell id="TYrLCPMJrX0rA2hv0LJ_-24" value="" style="shape=image;verticalLabelPosition=bottom;labelBackgroundColor=default;verticalAlign=top;aspect=fixed;imageAspect=0;image=data:image/png,iVBORw0KGgoAAAANSUhEUgAAAS8AAAA1CAIAAACfhvrGAAAACXBIWXMAAA7EAAAOxAGVKw4bAAAU4UlEQVR4nO2dd1hTV9zHT9i7sgxTQIuAKIiooIBA1UfqAAriAEdB3FRFsVhbW7V1IrYOLO5RRRxVBEXheZQRRSJCZDsAAVmaKCvsJPf947w9b16SXHIjSQjy+YPncO85535Pkt+Zv3MuCcMwMMQQQwwA5KQt4LNgsVhZWVnSVvHFkZmZKW0JgxMZtsb6+noXF5cDBw5IW8iXRU9Pz8qVK/39/dva2qStZbBBktGeakVFxTfffKOrq5uZmamuri5tOV8WdXV1U6ZMMTQ0TElJ+eqrr6QtZ/Agk9YIfw0YhlGpVENDQ2nL+RIpLi52cXEZM2bMw4cPVVVVpS1nkCB7PdW2trbZs2d/+PDh7t27Q6YoLWxtba9du5adnR0UFCSLFboE4HA4PT09hJLInjWuXbs2Pz9/9+7ddnZ20tbyRTNr1qx169bdvn07KipK2loGHC0tLV5eXnp6ehwOh0AyTKa4dOkSAGDSpEksFkvaWobAmEymhYWFvLx8Tk6OtLUMFDgczp07d8zNzaF9dXZ2Cp9WlsaNdDrdxsbm48ePz58/d3R0lLacIQAA4OrVq4GBgePGjcvNzVVUVJS2HKnR0dFRWlp669aty5cvV1VVoeudnZ3KyspCZtKHNWZmZhJraj8bDw8PQbdCQkLOnz8/b968xMRECSoaAg8OhzN+/PjCwsJDhw5t2bJF2nIkzT///BMVFdXY2FhbW4thGIlEcnNzq6ysrK6uhhH60xrV1NQ6Ojo+VzIR2tvb+c7RvXr1ytbWls1m5+TkTJw4UZKShsDn+vXrCxcu1NHRKS8vHzZsmLTlSJQrV67ExMTo6OiYmZk5Ojp6enpaWFh4enqmp6fDCISsUQH/tpubW3d39+fIJYqg6fJdu3ax2Ww3N7chUxxo+Pr66uvr0+n0I0eO/Pbbb9KWI1GCgoKCgoL6LTvxDGX7GTqdDsckp0+flraWIfiwdetWAICpqSmbzZa2FunDPdoiNIsjGyscly9f7unpUVFRCQgIkLaWIfiwZMkSAMC7d+9SU1OlrUWGkQ1rPHfuHABgxowZQ35YAxM7OztjY2MAwJkzZ6StRYaRAWvMzc0tLCwEAEyfPl3aWoYQiJeXFwAgMTGRwWBIW4usIgPWmJycDAOenp7SVTIEDjNmzAAA9PT0ZGRkSFuLrNLHnCov2dnZGRkZDAbD3t7ez89PTU0NPz6GYSQSie+t1tbW2NhYJpO5ZcsWLS0tQTlQKBQAgJaWlgiucFQqNT09nU6nQ7U4uz2eP39+/fp1Z2dnPz8/ok+RMK2trbdu3SosLCSTyZ6enjiTzF1dXadOnaqvr9+0adPw4cPFqgr5Y1AoFH9/f7E+a9Ai/IRPR0fHwoULdXV1Fy1aFBgYCACwtLQsKirCSXL37l0ymWxtbf3p06det5hM5pgxY6CGGTNmCMqhp6dHQ0MDAAA3bQhPZ2dnYGCgtrZ2UFAQnGMYNWpUQUEB38ipqakKCv9bMd28eZPQgyRMSkqKoaGhk5NTWFiYpaUliUSKiIjgG5PNZqPehJ2dHYfDEaswDoejqakJAHBwcBDrgwY+Is+pErDGpUuXuri41NXVwX/d3NzgRy/IZZTJZKK1YN6f+Pnz57krhbKyMr6ZPHv2DEYIDQ0VXiqGYSEhIW5ubjU1NfDfadOmAQDs7e17enp4I3OPSHGqBqlTXFysp6eHlnkePXoENd+4cYM3MuxTIB4/fixuea6urgAAOTm5pqYmcT9rICP2FY6//vorLS0tOTkZbWKClkaj0XJzc/kmycjIaGpqguFx48b1umtmZtbLGvlmAudvAADW1tZCSgUAxMTEZGVlJScnw4k+AADsCefn5z9//pw3PoqGo0TqNDU1+fj47Nu3LzQ0FF5B3Xu+M5lkMhk1+EAi5bKwsAAAcDic0tJScT9rUCLUuLGiomLr1q137tzhHt2VlJSgwOTJk3lToZrbwMBg9OjRve56enru379/27Zt8F9BHj9v376FAT09PWGkAgCqq6vDw8NTUlJgFxfy6tUrGHj58qWzs3OvJEeOHKFQKPBZXV1dQj5IwkRGRhobGyNTBP+/ULzxLS0tDx06tGnTJvivBMplYmICA5WVlbwfMiE4HM4PP/xQUlLCYrH6Qxof1NTUfH19165dK6b8RUAoazxy5IiTk9Ps2bPRlbq6OmQnBgYGfFOlpaXBAOwl8hIZGZmWlpaSkgIAELRvGD1FeAdIqJZ7Ara+vr68vByGdXV1eZMMGzbs8uXL06ZNY7PZ3O0kpKura8+ePdXV1Z8+fWIwGO/fv582bVqvnra4odPply5dunv3LvdF1BflWygAwMaNG1NTU+GkNG+5+h1kjehbE5mWlpZTp06JzxQhra2tMmaNLS0t58+fP3HiBPfFuLg4uLdDSUmJby3Y3Nz84sULGMbZlrFt27aUlBQSiWRpack3QmVlJQwIue7f2tp65syZmJgY7ovXr19HauFwl5epU6f6+PjcunULzS0hWlpa8vPzm5qa8vLymEwmAIC7YpIMJ06cMDEx4R7fslismzdvwjBcXeDL/v37oTXylqvfQfXy51vjsGHDysvL37x5I9a2kXcAJWX6HFnGxcUpKys3NzdzX0TF8PHx4ZsqKSkJPaKkpERQ5j09PQoKCqNHjxYUAf2G8vLy+pQqSO2ECRNgJr6+vjhp9+7dCwCIiooSFGHz5s0wH8nPu44ePfqnn37ivsK9rezFixeCErJYLFVVVQ0NDXHPqWIYdv/+fahn/vz54n7WQEbkWZy+20YVFZXIyEjuEWN+fj6aXFm2bBnfVGhHib6+vo2NjaDMFRQUDAwMnJycBEVob2+HASF7qrxqCwsL8/LyYBguzAgCWj4yXV5ycnJgQFDfW3zY2tqGhIRwX7lw4QIM2NjY2NvbC0ooLy9vZWWlqakpaNW3H0H7b9C3NgQxRDD9iIgImFZXV7erq4tvHLQWHBAQgJMVh8NRV1c/fvy4oAhozfrjx48iSMX+214AANDU1Gxvb8eJee7cOSUlJUFx2tvblZSUAAC2traiKelHGhsboRgAwB9//IEfecSIEb/88osEVFGpVCjJw8NDAo8bsEhuDweGYfHx8cjS0G+Cm+bmZhqNhr4YnNzKysra2tpwmho0bOD7IGHUXr16FYZ9fX3xzxrMzc2dNGmSoDhPnz6FE7/u7u4iKOlfbt68iWahFy1ahBOTwWBUV1dLRjNqfomelTYEhLA1Pnv2rKamBoYF/Q4oFAo6vwP/d5CWlmZsbIwzmEaedy0tLUSlAgCoVCpSi99NBQBQKBSc6RDU98avXyQDmr9xcnIaNWoUTkwKhaKqqjp16lQJqGpuboaBPv0lh+ALYWu8ffs2DAwfPlzQ/CT64erp6eFP5T169Ojbb7/FifCZ1ojU6uvr41gaAKCqqqqgoGDBggWCIqBCSX7Q2Ivm5ma0lttnFZOUlDR37lzJmAeyxqHT30WDsDWiydK5c+fKyfFPjlYaPTw8cCYPuru7U1JS4E4cQaDvFX3ThEATj7Nnz+Z2TOEFrm0Iqjs6OjrgoMjGxoZMJougpB958OAB6gp6e3vjxGSxWImJiThVTP8y1DZ+JsT2cHz8+BG54Ahqajo7OwsKCmAYv5uamprKYrHw20ZTU1M4BBXBGhkMBnJS6bN7eeHChYULFwq6iz9ohO6B6urqXl5e2traRHUS5fHjxzBgZmaGzu3kS2JiYldXlzCro7W1tVlZWQ0NDUpKSubm5p6eniIM1JEjJHIDEBk2mx0YGFhaWiq+IaiamlpAQADyBhsIELNGbidPQRt5ioqK0NQL/nAlPj4+ICAAvx6Fro9ApJ4qt1r87iWFQnn9+vXq1asFRRA0aMzNzQ0PD6+pqXF2dqbT6REREc+ePRO314vwCy0xMTGhoaH4n3BJScmmTZsyMzOnTp1qYWHR2NhYWlpKp9Ojo6OXL19OSBiqMdG3JjJtbW1JSUniPq9QU1NThq2xtrYWBpSVlb/++mv8OAAAnAkGOp1+8+bNBw8e4D8R1f0i7Civr6+HAXl5efw2JDo6OiQkBKcLynfQePr06d9+++3AgQNBQUFlZWUbN26sr68/fvz4vn37iEolBCqXoK8AQqPRHj9+fPHiRZw4VCp15syZVlZWRUVF3LlRKBRvb29zc3NCk7Gobfx8a9TS0qqtra2urhafL46qqurIkSPFlLloELNG9NEMGzZM0IAQvdZPRUUFx53t5MmTFhYWfX7Z6Cfy+vVrQlIBlye6gYGBoCEuAIBCody7dw8nfzRotLKyQv60u3btSkhIePr0KdyMEhwcDN/rit+Gv3//Pi0tzcjIaOrUqfjjWBxQuYyMjHCiRURELF26FKfTyGKxVqxYIScnl5ycrK+vz33r4sWLLS0tSUlJhKyxoqICBvCrCSHR1taWQLd/QEHsB4G+fpxDVtHGAg6Hw+Fw+JrBx48f//zzz9jY2D4dRJydnUkkEoZhfLcp4IMsB+e4dBaLFR4eHh4ejlOd9xo0Yhi2efPmnJyc9PR0VN3Iy8vDv4sXLxaUT15e3owZMxobGwEAXl5eCQkJwp9726tcDQ0N+OVKSEig0Wj4DePVq1eLi4vnz5/fyxSzs7PPnj0LAIC7h4WnuLgYAEAmk/EXXQY9mMhv0yDkZNDY2IjetVBRUcEbgcFgcHulVVVV8c1n1apVkydPFtJzEs5zjhgxgpBUDMPq6uqgkZBIJEEeNhs2bHBwcBDkUQTZsWMHLE5cXFxnZ+eyZcvc3d2ZTCZ3nHfv3h09ejQ3Nxcnn7lz53J/8seOHSNaIgjadhAZGck3Qnl5uba2Nt8tyNysX78eAGBjY9Or+J8+fZo5c+acOXMI+T+1tbXBuvULd1LFMIx7SoX31AscCHvGbd++HT5m7969vW5xOBxvb29HR8d169YJioNhWGxsrK6ubmVlpZBPRJMr7969I6oWHXJz8uRJ3rsxMTFqamqlpaX4maBl1fv370+cOHHVqlUdHR1ElWAY5uDgwG2NEyZMECETDMNoNBrscYwYMaK7u7vX3YaGhnHjxgUHB/eZT3BwMFQyfvz448eP5+Xl8T0YQUjQ4VRHjx4VOZNBQGFhIbc716lTp4RPS9ga2Ww2XJNQU1NLSkpC11tbW7///nsdHZ2XL182NTVB9xotLa3U1FQUp729/eeff9bW1n748KHwT7xy5Qpqmoiqra+vNzU1BQAMHz78yZMn3GqXLVumoaGRlpaGnwNyTwUAyMnJeXl5wY4rUSUYhvWavlNWVhYhE8iePXtgJitWrOD2hExJSSGTyX5+fvitPeTOnTu9Okrq6uq+vr4pKSkiSNq5cyfMJD8/X4TkMgqdTg8LC1u/fv2aNWuCgoJcXV15V4bs7e0DAgJWrly5bt26sLCwjIwMQbmJ4jXe1tZ28OBBOAPp6OgYHBwcEBBAJpMnTpyI2pnW1taIiAgFBQUSiTRlypQVK1bMmTNHX1/f1dX17du3hB7X0tICfQBWr14tgtqGhobly5erqqoqKCi4uLiEhob6+flpaWm5u7u/evWqz+QPHz6En6mDg8OsWbPgVhIdHZ1Vq1Z9+PCBkJL29vbVq1fr6OiYmppGR0cDABgMhgglgsTFxY0dOxYAYGJi4u/vHxoaOmHCBE1NzcOHDwt//P727dv5Duw3bNhAdAcWHFSPHTuWeFFkmLKyMmVlZR0dHTKZbGJiYmZmZmFhMXLkyFH/MXLkSHNz8xEjRhgaGurp6ampqeHskRD9/Y0dHR0ZGRmVlZWVlZUkEsnV1XXWrFm95gkZDEZ6enpBQUFra6uenp6bm5urqyvO9KYg4LviDA0Na2pqREgOAGhubk5KSqqqqmpsbDQyMpo+fTrOLiRufv31199//x0AcO3atQULFnR1dd24cSMsLKy5udnY2DgpKalX/1NImpqatLW1GQyGoG37QkKlUqlUal1dnZKSko2Njbe3N1GvtMLCwnPnzmVnZ9NoNO7TOg4ePIi2v/RJY2OjgYFBd3f34cOHw8PDCQkY4v+QYD0iOnDxAADQZ8ey30GDxoaGBnQRuf65ubmJlm1BQYG8vPyAeocMk8m8ffv2rFmzYNEcHR2FTxsbGwsAUFRUfP/+vfgUDnpkwxoxDLO1tQWidlZFBg0abWxsuK9zOBzYpmlqanJfX7hwITozEp/ExEQrK6v+1Co0LBZr9+7d/v7+fM90ZLPZsM9pbW0tfJ7w7Eb8oxWG6BOZscbTp08DADQ0NAhNGX8maNC4Zs0a7utsNhu6m3H/ZGk0mqqqaltbmzA5r127duXKlf0sVzj2798PC+Xu7s43AnwH4+LFi4XMsLi4GK5tUKnUflP5RSID7+GABAcHW1tbM5nMXidQiRXkENfLJYVOp8PDJsaPH48u/v333/7+/sJsX2Cz2f/+++93333Xn1qFBhVK0IgXHkUnvJMqPHzA19eX70GeQxBA2tUBAeD5hXp6ekK2P58PGjT26n9yOBzo5IDazObmZg0NDZzTori5cOGCubm5tAaNYWFhurq6UVFRfNdp4uPj5eTk8M9P4ebly5dycnLKysrCTFAPgY8sWSOGYXBz7Y8//iiBZ3V2dsJBo6WlJe/dDRs2gP9mcXp6eubNmyekDwqTyTQyMrp48WI/yxUa+PqAzZs395pxYTKZ0dHRioqKPj4+wrs3wA2We/bsEYPSLw4Zs0YGg2FsbKygoECj0cT9LCaTCU8rj46O5r3b1tYGDyJxdXWFBwsI2WIvWbIEHqPc33oJUFpaCvey2dvbz5s3z8fHZ9KkSSoqKk5OTvHx8cLnA88cmjJlimjuEEP0QvT1RmmRlZXl4eFhZ2eXlZUl2tFVwvPmzZvKysqZM2cKivD69euioiIjIyMhD7rfu3fv8ePHqVQq9BCSLo2NjW/evKmpqWGz2WQy2crKitCxBgwGY8yYMRwOh0ajDYTiDAakXR2IAnzx+JIlS6QthBgcDmf69OnFxcXSFtIPdHV1ubu7q6ioUCgUaWsZPMikNWIYFhUVBQDYuXOntIV8oSxfvlxRUTEhIUHaQgYVsmqNGIYdO3ZMXl7+7Nmz0hbyxbFjxw4NDY179+5JW8hgQ2bWG3kJCwtLTU198uSJtIV8WXR3dxcVFWVnZ0v+1UCDnv8BCfUsxeKSBpIAAAAASUVORK5CYII=;rotation=-32;" parent="1" vertex="1">
          <mxGeometry x="710" y="440" width="131.49" height="23" as="geometry" />
        </mxCell>
        <mxCell id="TYrLCPMJrX0rA2hv0LJ_-25" value="&lt;div&gt;v&lt;sub&gt;a&lt;/sub&gt;&lt;/div&gt;&lt;sub&gt;value:1&lt;/sub&gt;" style="ellipse;whiteSpace=wrap;html=1;aspect=fixed;fontSize=20;" parent="1" vertex="1">
          <mxGeometry x="280" y="110" width="80" height="80" as="geometry" />
        </mxCell>
        <mxCell id="TYrLCPMJrX0rA2hv0LJ_-27" style="rounded=0;orthogonalLoop=1;jettySize=auto;html=1;entryX=0;entryY=0.5;entryDx=0;entryDy=0;" parent="1" source="TYrLCPMJrX0rA2hv0LJ_-19" target="TYrLCPMJrX0rA2hv0LJ_-28" edge="1">
          <mxGeometry relative="1" as="geometry">
            <mxPoint x="698" y="222" as="sourcePoint" />
          </mxGeometry>
        </mxCell>
        <mxCell id="TYrLCPMJrX0rA2hv0LJ_-28" value="&lt;div&gt;v&lt;sub&gt;a&lt;/sub&gt;&lt;/div&gt;&lt;font style=&quot;font-size: 17px;&quot;&gt;value:1.5&lt;/font&gt;" style="ellipse;whiteSpace=wrap;html=1;aspect=fixed;fontSize=20;" parent="1" vertex="1">
          <mxGeometry x="850" y="110" width="80" height="80" as="geometry" />
        </mxCell>
        <mxCell id="TYrLCPMJrX0rA2hv0LJ_-29" value="" style="shape=image;verticalLabelPosition=bottom;labelBackgroundColor=default;verticalAlign=top;aspect=fixed;imageAspect=0;image=data:image/png,iVBORw0KGgoAAAANSUhEUgAAAU4AAAA1CAIAAACho5WIAAAACXBIWXMAAA7EAAAOxAGVKw4bAAAZlUlEQVR4nO2de1hTR/r4JwEJBAyKiFzkrqKIihZQ0AUVENGKSFEepNDgI4gtuLsulVVpi9au26XeutsVr2hhy7bWVgW8oCAVoVyrZRVESMByM4pAuIaE5Pz+mH6n5xdyTk4CSSjm89fknPfMvEnOnJl533feQ8MwDGjRomWiQ9e0Alq0aFEHv6eu/urVq0ePHmlaiwlOeXn54OCgprXQMvb8brp6cXHx/Pnzb9++rWlFJjhpaWlubm4cDkfTimgZY34fXf369eu+vr7BwcF//vOfNa3LBOfUqVO2traenp7V1dWa1kXLWEIb/2a5goKCwMDAVatW5eTk6OrqalqdiU9fX5+3t3dzc3NJScns2bM1rY6WsWG8d/WamhovLy8LC4vy8vLJkydrWp3Xhba2tkWLFhkbG5eXl5uYmGhanXHH0NAQg8HQtBa/IpFI6HT50/NxPYHv7+9/6623ent7z58/r+3n6sTS0vLkyZMcDicyMnKcDwZqo6ysbNu2bXPnzmUymfr6+tOmTVu5cmVaWlpHR8eYt3Xo0CEHB4fExMTi4mKJRCJTRiKR3L9/Pz4+3sTE5NmzZ/IrxcYx27ZtAwDs3r1b04q8poSFhQEAjh07pmlFNExNTc3SpUsBAHPmzElLS3vy5Elzc/OdO3fCwsLodLqhoWFqaqpEIhnDFuPi4lAPNTc3DwoK2rFjR0pKyrFjx1JSUuLj41evXm1sbAwFoqOjqdQ5frt6fn4+AGDGjBn9/f2a1uU1pbGxUU9Pj8lkNjQ0aFoXjVFYWGhkZAQA+NOf/iQWi6XOVlRUzJgxAwCwefNmoVA4Vo3iuzo5oaGhFNsdp11dJBLNmTMHAHDkyBFN6/Ja89577wEA3nzzTU0rohnq6upgP9+4cSORTElJCbQWx8bGjlW7VLq6np7eoUOHqM8mfjPLtbS0REZGUnyWjAlWVlaZmZkyT509ezYmJsbMzKyxsZHJZKpTKy14Wltb7ezshoeHCwsLfXx8NK2OWsEwzN3dvaqqSkdHh8vl2tjYEEnGxMScPXsWAHD16tWgoKDRN71z5860tDSis7q6umFhYcnJyXPnzlWgUtTpnz59OnoVFWL27NkyHz8ikcja2hoA8MEHH4z6+ahltGzcuBEAsHLlSk0rom7+85//wBs1JCSEXPJ///sflHR0dBSJRKNvGo7qeXl5KSkp4eHhq1ev9vDwWLduXUxMTEZGBo/HU6LO39zUM2fOvHv3rjq7uoGBgczjubm5zc3NAAA1zzK0yCQ2Nvbq1auFhYX19fWvlZv96NGjsLBmzRpySRcXF2tr6+bmZg6Hk5eXt27dujFRwN/f39/ff0yqAmBcWuDhMLJs2TJNK6IFwzBMLBZPmzYNAJCUlKRpXdRHTU0N6iPV1dVy5UNCQqDwli1bRt86HNVHXw+ecedXf/HiRW5uLgAgNDRU07poAQAAOp0eEBAAALhw4cLw8LCm1VETaPYOAJg5c6ZceXt7e1i4du1aX1+fqtQaBeOuq2dkZMD7ydfXV9O6aPmVwMBAAACPx7t+/bqmdVET9+7dgwUdHZ0pU6bIlYfWJQCAQCCoqqpSoWbKMu66OryZTExMFi5cqGldtPyKn58fLLwmOwslEsmDBw9g2dTUlEajyb1k6tSpqFxRUaEqzUYB2e4RiUSSnZ1dUVGho6OzdOlSKsYGDMOIfpeGhob09HQbG5vY2FgiGZFIVFpaCgDw8vKiEtYrpW1OTk5FRQWdTofmSpJ/6LvvvispKdm6deuSJUsUakV1NDU15ebmNjQ0zJkzZ/369SSunfb29lOnThkbGyckJKhn/4+5ubmlpWVbW1tRUZEamtM4HA4HTcJNTU2pXIJi1wAA43NUJ1z6NzQ0LFmyxNHRMSYmZsWKFQCAgICA3t5eknX/gQMHjIyMNm/ePPJUdXU1DEUAABw6dIiohh9//BHK7N27VxGLA8blct3c3BwcHHbs2AHdv35+fnw+X6bwhx9+CFsxMDBobm5WqCEVkZqaamho+Oabb+7cudPY2Hjy5Mlff/21TMm2tjYYngUAiI+PV5uG69evBwDQ6fTOzk61NaopiouLUQehaB6+efMmumTFihWjVEDKLCcQCPLz88+cOZOampqRkVFaWqpEHK7srt7T0+Ps7BwXFzc0NIRh2ODg4KRJkwAACQkJRBXdv38ffdWOjg6ps++88w46O3PmTKJK/vGPf0CZzMxM6t+hr69v4cKF77777uDgIIZhAoEAavvee++NFBYKhfr6+kgZkueO2vjyyy+tra2Li4vhR/gkMjQ0bGpqGin88ccfI+UZDMbw8LB6lExOToaNZmdnq6dFDYI3SSxfvpzKJfilzaxZs0apAOrq7e3t8fHxhoaGkydP9vDwCAoKgjZCGxubw4cPKxSKK2OSjGFYVFSUo6PjyZMn9fT0AAD6+vrQB37+/HmifTZXr16FBQsLC+ibwWNnZ4fKra2tRCmNUCiCQmFA0dHRCxYs+OKLL2AfZjAYsJCenj5S20mTJqFREQDQ0NBAvSFVUFlZuWvXruvXr3t5ecEjLBYLANDf35+VlTVS3srKCpWHhoZaWlrUoyeyML8OOb96enpQmeJCEr+S4vF4Y6LGzZs3582b9/Tp08LCwp6enrKysqtXrzY3N+fk5AwODu7du3fx4sX19fUUa5Ox0svIyLh79y7er9jS0gK/fH9//y+//ILvt4iCggJYkBk+mZycXFVVlZOTAwDAMIzIZ9PY2AgLFBdIAICsrKz8/Hx8qF9bW1tvby8AYGBgQKa2ly5dWr58uUgkAgAMDQ1RbEgVYBgWGRm5a9cuFxcXdLCurg4Wnjx5MvISNpudnZ39/fffw49q0x85nJqamkZfW0FBwfHjx7u6ukZflUxoNJqlpeXRo0ctLS2VuBzf1XV0dKhcghcTCARKNDqSjRs3nj59Gj8jhqxfvz4vL8/Ly+vx48fe3t75+fnOzs7yqxs50C9atGj//v34I1999RUUptFoMveZdXd3o4ffv//9b5nzh66uLnNzcwCAkZER0RwDDVnd3d0UpyVvvPFGcnIy/sh///tf9O16enpkXvXpp59CgcTERIoNqYJr164ZGRl1dXXhD6IZDdHu3VevXqEfitx6MoY8fvwYtrhmzZrR15aYmKjwja84t27dUk69zz77DFXi6+tL5RL88h4AMMo9rfHx8QCAjIwMEpmDBw/CtpycnKjs/pQe1e/evVtdXX3t2jX8QRRO4ObmJnPzyb1799BUeeXKlTJ/9ylTpuzYsePAgQNwy9pIhEJhW1sbAIBGo1FMRPHDDz/89NNPaIiDoK7u4eFBVE9iYmJqampHRwfJ47Cnp+fjjz/u7e398MMPlRsc5HL06NGwsDC82/bnn39GgzlycUlhYmKSlJS0a9cuGxsbZOxUNfAxDXAzr9HwySefhIaGdnd3j74qmcBRHT9XUgg4K0RVUWwR/3F4eBgajJQjJCTExcXl7bffJpFhs9nQrFNXV5ecnIzCeAmR6vqxsbGenp74IzweD61DiLIU/OUvf4ECZmZmJM8VGGNPtNfvxYsXsBIWiyX3EUWkbUdHB7QvAACOHz9Oci0MbK6oqCASiIiIgPVIzXHGitbWVhqNJjXy7N69GzY6ffp0ko0TJSUlAID169erQjGZIPOKqamp2hrVFCkpKaiDUBzVUcgNAEBXV1fVGkJmzZoFW9TX15e7B0ba5DBjxow9e/bgj2RlZcGlta6ubnh4uMznRWFhISyQ73OEEUUwocdIBgYGYIFKcBKRtl999ZVQKAQA0Ol0mESFCGdnZz09PZIHP0qQ7OTkRFEfhRAIBMHBwfigwOHhYTSB2rx5M4nPHE5G1BkUoK+vDwcu9DdNYPADMpEdWgqxWIzKeB+7Slm9ejUsCAQCuIuWDLlPDjc3Nyi5YcMGmQL4hfoXX3xBUlV5eTkA4NGjRzLPIkPgggUL5GpFhLu7O6zEz8+PXDIqKorc/1leXs5ms0+dOqW0MooCg/8h9+/fJ5HkcrkAgDt37qhNNwzDoBeGRqONbXKlcQh+rf6HP/yByiV37txBl9jb26taQ8jhw4ep6ykn1qq+vr6yshKW0YRWiqKiIrkLdcjDhw9NTU3nzZsn8ywyy6MZuKLU19ejmESiCQiiqqoqODiYRMDd3T09PV05TZQDmT9tbGyQ700mVVVVkyZN8vT0VItevwJHdQzDxGLxxM7SjXcAwUmiXPBOJbWN6oaGhqhcWloqFApJ+o4cn+F3332HKt2wYYNMGTR7nz59OlE3hty9ezcgIIDIUYkMfnhXh0JcvnwZFhgMBtpUKJPOzs6amhoiu5dGEAqF2dnZsBweHk5uDSoqKvLy8lJnfp7h4WE4dZ80adLE7ucAAAsLC1Sm6M6EvlsIjIxQA/iuLhKJXr58SSIsp6sj43ZgYCDRjYVfqJPfoPDlDURnR9/Vkbbr1q0jX/Dn5OSYmZl5e3sr15AqyM/PR19869at5MLZ2dlbtmxRvVK/wefzYQF/e01U8F2d4t2IjMrg/9/6oihVVVUrVqywtbXdvn073hEgE6nkLuRdnezxzOPx4OoaAECUMau7uxvtASKfvZeXl7948YIkoQe6h9BdpRDPnz9Hs3e5+b0uX74cGhqq6I4alYIcnLa2tuS7+h48ePDs2bO33npLLXr9CvpTXodUf05OTgwGA47nFO/G9vZ2VF6wYIFy7WIYFhQUBF3O586dMzAw+Oc//0kij7cFAnmzCbKuDqOyYZlorltZWYkW6uTm92+++WbVqlXTp08nEmCxWCwWq6enRyAQkK865GpL/tDh8Xg3btzA21HwVFdX//jjj8bGxn5+ftSD9kYP2kRArjwAID093cfHBx/eKxORSFRUVFRfX29gYODl5YUcM8qBfOBU8jTIJTs7+/DhwyqNlrOysjp79qytra0Sl+vp6S1ZsgRuvuru7haLxXJj5vBd/Y033lCiUQAAh8OB/RyC31ciE6kcGPjJiAxITHZ//etfoYylpSWRTGpqKpRhsVgkhlmxWGxtbX3x4kVyI+GiRYtgbS9fviSXHElSUhK81tramlzy4MGDrq6uI49LJJK4uDgzM7Pw8HBzc/OpU6eqzcTd39+Pphjnzp0jkezr62OxWFeuXCGREQqFn3zyyYwZM0xMTIKDg/39/ZlM5vvvvy+RSI4ePRoaGqrEfj4U+BwWFqbotSPZv38/hTt/tBQUFCitIf5FoI2NjXLl0SSLRqO1tbUp16jUC3Dhq3VIwO99cnJyIhcmG9VbW1thYf78+XJlHBwcSBbqubm5nZ2d5KYyAICdnd3PP/8MAOjo6FB0REWPVfLha2Bg4OTJkydOnBh5at++fY8fP66pqZk2bdqRI0cSExMjIyNbWlrUMM/n8XhockSu/5kzZ6ytrUlWKFwud9OmTdXV1VFRUSdOnIA2Cy6X6+PjU1dXB5cJXl5eir7TFo3qaN/LaDh48CCbzVZupUYFGo0G99grXcPmzZuPHTsGy1wuV+a+Dzxo35GPj4+c0ZUYKysrPT09oVBIp9NXrFjx97//nVy+trYWlWFGRhLIujryH5C8oK+/vx8WUOCkTE6cOBERESE3ihPd5U+fPlUsxzXOKUL+Bx85csTIyGjkQvfWrVvnzp2rrq6G2/JgcFh7ezuXy5U79a2tra2srHR1dVV6kYb36JDo393dfejQoePHjxM9VWtra/38/Nra2qKjo8+dO4fEHBwcTp48iXwoJM9uIqAnH8h7ElGETqePST2qw9PT09XV9eHDhwCA8vJyFKwiE5FIBIcoAABJNKtIJMrLy+vv71+zZo1MszGDwfD29tbX1//mm2+I8injQY5wOp0uP70yyYiPwl03bdpEJIOM2CQhKwUFBQwG45dffiGfYGAYhrxln376qVxhKdAwFR4eTiTT3Nw8efLknJyckae8vLwOHz6MPsKkvHQ6Xe5+kjNnzqCF3IEDBxRVG4If3+rq6ojE/vjHP3p6ehLtUefz+bD/ODg4wK37eCQSCfT30ul0oqQdJERHR0P1amtrFb32d8rp06fhV/bx8SGXRHaf6dOnE+2wGhgYQPFdlpaWRO/GysjIoNFoVH7ksrIydM+w2Wy58mRdHQVv2drayhTIy8tDjRFFCAmFQhcXF4obyNBG36ioKCryeL7++mt47dKlS2UKCAQCDw8PmfkqYETK8+fP4cf29nboOpYb/ywWi6XiJagkEpYJCkm4ceOGTIHLly+zWCwOh0NUAxpPLl26NPIsn8+HK5ElS5YooZ6Hhwd4PQLgEQKBAMVEk/+tKLsxSbSo1JqRaB0+PDzs5OTk7e0tEAjI1du0aRN6cLS3t8v9OmRdXSQSoUG7pKRE6mxHR4ednV1CQoKrqyuUQXlUEBKJZOvWrZ6enjCbDRXgj6tEHg+BQACnvnQ6feRDUSgURkREODs7DwwMjLy2rKzs4MGD6OPf/vY3+I2+/PJL8kZHrjaVfm/s559/DmuQOSspLS01MjIisWs+ePAATtctLCxk7pOByQIAAHv27FFUN4FAAOeTct9zMsEoLi6G71H38fEhsjqjF6UEBgaOfH8jAm1kgpDMFCorK/X09EJCQkhSDCE7ApPJJNmyhUdODDyPx4N7VGbNmoWfWHI4HA8PD3d39/7+/gcPHsC9oi4uLvhpSXNzc3Bw8Jw5c1pbW6moAomJiYHfQaGrIPn5+fCP8fDwwF/e0NDg5uY2d+7clpYWuZVIJBJHR0cAAIvForINeNmyZfi/MCAgQFG1IWKxeO3atfBRhQ+8l0gkR44c0dPTS01NJbkcRd3s2rVLpsD7778PBZTYxY2ipE6cOKHotb93vv32WxhKsH379pEjVllZGTTueHp6SuUdkELKuUu+RL18+TJ0+N27d0/q1NDQ0N69e9F4TrGfY1TexNrc3Pzuu+8yGAwdHR0/P7/Y2Ni1a9cymcyIiAiUQKKxsRGafAwNDf39/bdv3+7j48NkMmNjY/v6+iiqAoHvWgYAZGVlKXQhpKKiYs2aNTQajcViBQQE7Nixw8/Pj8FgbN++nWK6C+RViomJoSLf1NQUEBBgZGS0ePHipKQkFxcXJdSGCIXCjz76CBo4XVxcIiMjIyMjbWxs7O3tb968SXLh0NAQCp8gkoQLRV1dXUX/EQzDPvroI3gtlYnixOPJkyeLFy8GADg6OmZmZj579ozP55eWlsbFxdHpdBqNtnPnTiqjQlpamq2tramp6e7du+W+2u2HH36Ar83y9vbevXt3enr6hQsX9uzZA28POp3OZrMV+jt+exMrOc+fPy8tLW1sbGxpaZkyZUpAQABcvOHhcrkFBQVcLlcoFFpZWQUGBipqRQcAYBg2e/ZsDoezZcsWtPxWlMbGxry8vNbW1qGhIXt7+6CgIOp+l4iICLjtpKSkRNH9JFeuXPnggw9QhjzlGB4evnnzZm1tLY/HMzExcXNz8/PzI3f4lZWVwcmFjo4On88fGbva09NjYmIiFouXLl0K028rhLu7e2VlZVBQEMog+LohEomuXbuWmZl5584dGLhCp9Pt7e3Dw8PfeecdFXkThELhxYsXs7KySkpKYOiejo6Ok5PTxo0b3377bUpJpvBQfyqoDbhUZjKZSow/o6SzsxOmoJw3b54Sl3/++eerVq0ac63k8u2338J/c+HChTIFrly5AgWUWKijrDjff//9qDWdCHR1dbW0tKgtVy/k5cuX7e3tJLYAuYyjIHAEm83W1dUdGBhAO73URmZmJswBuG3bNnRw586dyIFJTlNTE1E6LZWC8hYSOcyR6QgFLz99+jQqKopK5ZmZmQAAMzMzmApey5QpU6ysrCimlxwrTE1Nzc3NRxPNNR67uoWFBUwgQx7rrwouXLgAANDV1UUBCY2NjadPnx6Z7lomN27c0MhuOeSoI4rTgtHUdDp9+fLl8MilS5c6Ozvl1iwUCuFvkpiYOJpkaVo0zxjOMcYQLpcLt7sUFRWprdGuri7orwoKCkIH9+3bR5R+R4rq6mp9ff1Xr16pTEFCBgYG4CATFxc38uzFixfhf41flXh6el64cEFuzadOnQIAWFhYyHRSavkdMU67OvZ/+YPXrVunthZRAnbk1qqvrzcyMiotLaVyOZvNViLyZ6xISEgAACxatEjqeHZ2toGBAfSKr127Fh589OjR1KlT5fZekUgEY7/l7lPSMv4Zv119YGAAGjZzc3PV0yLcfgcA+Ne//oVhGIfDmT9/PkVPclVVFYPBqK+vV7GOhPD5fPhGx9OnT6Mj+/btMzY2vnLlCswibGtrOzw8LBKJVq9enZKSIrdOmG/Y399fxbprUQfjt6tjGFZUVKSrq2tra6s2U3xJSYmVldXUqVO9vb1ZLBaV/oBhGJ/Pd3Z2lnrzhPrp6OgIDQ2l0Wiurq6+vr4sFis0NBQ+fXp7e2Hw5qxZs6ytrdeuXSvXr8vhcJhMpomJybNnz9SivhbVQtWvrilSU1P37NmTkJCA4kZVTX9/f3l5OZ/Pd3d3x78gjQixWLxhw4bBwcHbt2+Ph6RrL1++/OmnnzAMc3V1ldpuWFtb+/DhQzs7u2XLlpGnBsMwzNfXt7CwMDs7W2t4nyBo+FFDATabDQA4c+aMphWRzaNHj0JCQpTYKzaegaGXn332maYV0TJm/A66ukgkCg4O1tXVvX37tqZ1eS04f/48ACApKUnTimgZS8b7BB4iEomio6NzcnIKCwvRRjotquDWrVtBQUH79++HljwtE4b/B5UvLGab/6dVAAAAAElFTkSuQmCC;rotation=-25;" parent="1" vertex="1">
          <mxGeometry x="113.15" y="160" width="158.34" height="25.13" as="geometry" />
        </mxCell>
        <mxCell id="TYrLCPMJrX0rA2hv0LJ_-30" value="" style="shape=image;verticalLabelPosition=bottom;labelBackgroundColor=default;verticalAlign=top;aspect=fixed;imageAspect=0;image=data:image/png,iVBORw0KGgoAAAANSUhEUgAAAU4AAAA1CAIAAACho5WIAAAACXBIWXMAAA7EAAAOxAGVKw4bAAAZlUlEQVR4nO2de1hTR/r4JwEJBAyKiFzkrqKIihZQ0AUVENGKSFEepNDgI4gtuLsulVVpi9au26XeutsVr2hhy7bWVgW8oCAVoVyrZRVESMByM4pAuIaE5Pz+mH6n5xdyTk4CSSjm89fknPfMvEnOnJl533feQ8MwDGjRomWiQ9e0Alq0aFEHv6eu/urVq0ePHmlaiwlOeXn54OCgprXQMvb8brp6cXHx/Pnzb9++rWlFJjhpaWlubm4cDkfTimgZY34fXf369eu+vr7BwcF//vOfNa3LBOfUqVO2traenp7V1dWa1kXLWEIb/2a5goKCwMDAVatW5eTk6OrqalqdiU9fX5+3t3dzc3NJScns2bM1rY6WsWG8d/WamhovLy8LC4vy8vLJkydrWp3Xhba2tkWLFhkbG5eXl5uYmGhanXHH0NAQg8HQtBa/IpFI6HT50/NxPYHv7+9/6623ent7z58/r+3n6sTS0vLkyZMcDicyMnKcDwZqo6ysbNu2bXPnzmUymfr6+tOmTVu5cmVaWlpHR8eYt3Xo0CEHB4fExMTi4mKJRCJTRiKR3L9/Pz4+3sTE5NmzZ/IrxcYx27ZtAwDs3r1b04q8poSFhQEAjh07pmlFNExNTc3SpUsBAHPmzElLS3vy5Elzc/OdO3fCwsLodLqhoWFqaqpEIhnDFuPi4lAPNTc3DwoK2rFjR0pKyrFjx1JSUuLj41evXm1sbAwFoqOjqdQ5frt6fn4+AGDGjBn9/f2a1uU1pbGxUU9Pj8lkNjQ0aFoXjVFYWGhkZAQA+NOf/iQWi6XOVlRUzJgxAwCwefNmoVA4Vo3iuzo5oaGhFNsdp11dJBLNmTMHAHDkyBFN6/Ja89577wEA3nzzTU0rohnq6upgP9+4cSORTElJCbQWx8bGjlW7VLq6np7eoUOHqM8mfjPLtbS0REZGUnyWjAlWVlaZmZkyT509ezYmJsbMzKyxsZHJZKpTKy14Wltb7ezshoeHCwsLfXx8NK2OWsEwzN3dvaqqSkdHh8vl2tjYEEnGxMScPXsWAHD16tWgoKDRN71z5860tDSis7q6umFhYcnJyXPnzlWgUtTpnz59OnoVFWL27NkyHz8ikcja2hoA8MEHH4z6+ahltGzcuBEAsHLlSk0rom7+85//wBs1JCSEXPJ///sflHR0dBSJRKNvGo7qeXl5KSkp4eHhq1ev9vDwWLduXUxMTEZGBo/HU6LO39zUM2fOvHv3rjq7uoGBgczjubm5zc3NAAA1zzK0yCQ2Nvbq1auFhYX19fWvlZv96NGjsLBmzRpySRcXF2tr6+bmZg6Hk5eXt27dujFRwN/f39/ff0yqAmBcWuDhMLJs2TJNK6IFwzBMLBZPmzYNAJCUlKRpXdRHTU0N6iPV1dVy5UNCQqDwli1bRt86HNVHXw+ecedXf/HiRW5uLgAgNDRU07poAQAAOp0eEBAAALhw4cLw8LCm1VETaPYOAJg5c6ZceXt7e1i4du1aX1+fqtQaBeOuq2dkZMD7ydfXV9O6aPmVwMBAAACPx7t+/bqmdVET9+7dgwUdHZ0pU6bIlYfWJQCAQCCoqqpSoWbKMu66OryZTExMFi5cqGldtPyKn58fLLwmOwslEsmDBw9g2dTUlEajyb1k6tSpqFxRUaEqzUYB2e4RiUSSnZ1dUVGho6OzdOlSKsYGDMOIfpeGhob09HQbG5vY2FgiGZFIVFpaCgDw8vKiEtYrpW1OTk5FRQWdTofmSpJ/6LvvvispKdm6deuSJUsUakV1NDU15ebmNjQ0zJkzZ/369SSunfb29lOnThkbGyckJKhn/4+5ubmlpWVbW1tRUZEamtM4HA4HTcJNTU2pXIJi1wAA43NUJ1z6NzQ0LFmyxNHRMSYmZsWKFQCAgICA3t5eknX/gQMHjIyMNm/ePPJUdXU1DEUAABw6dIiohh9//BHK7N27VxGLA8blct3c3BwcHHbs2AHdv35+fnw+X6bwhx9+CFsxMDBobm5WqCEVkZqaamho+Oabb+7cudPY2Hjy5Mlff/21TMm2tjYYngUAiI+PV5uG69evBwDQ6fTOzk61NaopiouLUQehaB6+efMmumTFihWjVEDKLCcQCPLz88+cOZOampqRkVFaWqpEHK7srt7T0+Ps7BwXFzc0NIRh2ODg4KRJkwAACQkJRBXdv38ffdWOjg6ps++88w46O3PmTKJK/vGPf0CZzMxM6t+hr69v4cKF77777uDgIIZhAoEAavvee++NFBYKhfr6+kgZkueO2vjyyy+tra2Li4vhR/gkMjQ0bGpqGin88ccfI+UZDMbw8LB6lExOToaNZmdnq6dFDYI3SSxfvpzKJfilzaxZs0apAOrq7e3t8fHxhoaGkydP9vDwCAoKgjZCGxubw4cPKxSKK2OSjGFYVFSUo6PjyZMn9fT0AAD6+vrQB37+/HmifTZXr16FBQsLC+ibwWNnZ4fKra2tRCmNUCiCQmFA0dHRCxYs+OKLL2AfZjAYsJCenj5S20mTJqFREQDQ0NBAvSFVUFlZuWvXruvXr3t5ecEjLBYLANDf35+VlTVS3srKCpWHhoZaWlrUoyeyML8OOb96enpQmeJCEr+S4vF4Y6LGzZs3582b9/Tp08LCwp6enrKysqtXrzY3N+fk5AwODu7du3fx4sX19fUUa5Ox0svIyLh79y7er9jS0gK/fH9//y+//ILvt4iCggJYkBk+mZycXFVVlZOTAwDAMIzIZ9PY2AgLFBdIAICsrKz8/Hx8qF9bW1tvby8AYGBgQKa2ly5dWr58uUgkAgAMDQ1RbEgVYBgWGRm5a9cuFxcXdLCurg4Wnjx5MvISNpudnZ39/fffw49q0x85nJqamkZfW0FBwfHjx7u6ukZflUxoNJqlpeXRo0ctLS2VuBzf1XV0dKhcghcTCARKNDqSjRs3nj59Gj8jhqxfvz4vL8/Ly+vx48fe3t75+fnOzs7yqxs50C9atGj//v34I1999RUUptFoMveZdXd3o4ffv//9b5nzh66uLnNzcwCAkZER0RwDDVnd3d0UpyVvvPFGcnIy/sh///tf9O16enpkXvXpp59CgcTERIoNqYJr164ZGRl1dXXhD6IZDdHu3VevXqEfitx6MoY8fvwYtrhmzZrR15aYmKjwja84t27dUk69zz77DFXi6+tL5RL88h4AMMo9rfHx8QCAjIwMEpmDBw/CtpycnKjs/pQe1e/evVtdXX3t2jX8QRRO4ObmJnPzyb1799BUeeXKlTJ/9ylTpuzYsePAgQNwy9pIhEJhW1sbAIBGo1FMRPHDDz/89NNPaIiDoK7u4eFBVE9iYmJqampHRwfJ47Cnp+fjjz/u7e398MMPlRsc5HL06NGwsDC82/bnn39GgzlycUlhYmKSlJS0a9cuGxsbZOxUNfAxDXAzr9HwySefhIaGdnd3j74qmcBRHT9XUgg4K0RVUWwR/3F4eBgajJQjJCTExcXl7bffJpFhs9nQrFNXV5ecnIzCeAmR6vqxsbGenp74IzweD61DiLIU/OUvf4ECZmZmJM8VGGNPtNfvxYsXsBIWiyX3EUWkbUdHB7QvAACOHz9Oci0MbK6oqCASiIiIgPVIzXHGitbWVhqNJjXy7N69GzY6ffp0ko0TJSUlAID169erQjGZIPOKqamp2hrVFCkpKaiDUBzVUcgNAEBXV1fVGkJmzZoFW9TX15e7B0ba5DBjxow9e/bgj2RlZcGlta6ubnh4uMznRWFhISyQ73OEEUUwocdIBgYGYIFKcBKRtl999ZVQKAQA0Ol0mESFCGdnZz09PZIHP0qQ7OTkRFEfhRAIBMHBwfigwOHhYTSB2rx5M4nPHE5G1BkUoK+vDwcu9DdNYPADMpEdWgqxWIzKeB+7Slm9ejUsCAQCuIuWDLlPDjc3Nyi5YcMGmQL4hfoXX3xBUlV5eTkA4NGjRzLPIkPgggUL5GpFhLu7O6zEz8+PXDIqKorc/1leXs5ms0+dOqW0MooCg/8h9+/fJ5HkcrkAgDt37qhNNwzDoBeGRqONbXKlcQh+rf6HP/yByiV37txBl9jb26taQ8jhw4ep6ykn1qq+vr6yshKW0YRWiqKiIrkLdcjDhw9NTU3nzZsn8ywyy6MZuKLU19ejmESiCQiiqqoqODiYRMDd3T09PV05TZQDmT9tbGyQ700mVVVVkyZN8vT0VItevwJHdQzDxGLxxM7SjXcAwUmiXPBOJbWN6oaGhqhcWloqFApJ+o4cn+F3332HKt2wYYNMGTR7nz59OlE3hty9ezcgIIDIUYkMfnhXh0JcvnwZFhgMBtpUKJPOzs6amhoiu5dGEAqF2dnZsBweHk5uDSoqKvLy8lJnfp7h4WE4dZ80adLE7ucAAAsLC1Sm6M6EvlsIjIxQA/iuLhKJXr58SSIsp6sj43ZgYCDRjYVfqJPfoPDlDURnR9/Vkbbr1q0jX/Dn5OSYmZl5e3sr15AqyM/PR19869at5MLZ2dlbtmxRvVK/wefzYQF/e01U8F2d4t2IjMrg/9/6oihVVVUrVqywtbXdvn073hEgE6nkLuRdnezxzOPx4OoaAECUMau7uxvtASKfvZeXl7948YIkoQe6h9BdpRDPnz9Hs3e5+b0uX74cGhqq6I4alYIcnLa2tuS7+h48ePDs2bO33npLLXr9CvpTXodUf05OTgwGA47nFO/G9vZ2VF6wYIFy7WIYFhQUBF3O586dMzAw+Oc//0kij7cFAnmzCbKuDqOyYZlorltZWYkW6uTm92+++WbVqlXTp08nEmCxWCwWq6enRyAQkK865GpL/tDh8Xg3btzA21HwVFdX//jjj8bGxn5+ftSD9kYP2kRArjwAID093cfHBx/eKxORSFRUVFRfX29gYODl5YUcM8qBfOBU8jTIJTs7+/DhwyqNlrOysjp79qytra0Sl+vp6S1ZsgRuvuru7haLxXJj5vBd/Y033lCiUQAAh8OB/RyC31ciE6kcGPjJiAxITHZ//etfoYylpSWRTGpqKpRhsVgkhlmxWGxtbX3x4kVyI+GiRYtgbS9fviSXHElSUhK81tramlzy4MGDrq6uI49LJJK4uDgzM7Pw8HBzc/OpU6eqzcTd39+Pphjnzp0jkezr62OxWFeuXCGREQqFn3zyyYwZM0xMTIKDg/39/ZlM5vvvvy+RSI4ePRoaGqrEfj4U+BwWFqbotSPZv38/hTt/tBQUFCitIf5FoI2NjXLl0SSLRqO1tbUp16jUC3Dhq3VIwO99cnJyIhcmG9VbW1thYf78+XJlHBwcSBbqubm5nZ2d5KYyAICdnd3PP/8MAOjo6FB0REWPVfLha2Bg4OTJkydOnBh5at++fY8fP66pqZk2bdqRI0cSExMjIyNbWlrUMM/n8XhockSu/5kzZ6ytrUlWKFwud9OmTdXV1VFRUSdOnIA2Cy6X6+PjU1dXB5cJXl5eir7TFo3qaN/LaDh48CCbzVZupUYFGo0G99grXcPmzZuPHTsGy1wuV+a+Dzxo35GPj4+c0ZUYKysrPT09oVBIp9NXrFjx97//nVy+trYWlWFGRhLIujryH5C8oK+/vx8WUOCkTE6cOBERESE3ihPd5U+fPlUsxzXOKUL+Bx85csTIyGjkQvfWrVvnzp2rrq6G2/JgcFh7ezuXy5U79a2tra2srHR1dVV6kYb36JDo393dfejQoePHjxM9VWtra/38/Nra2qKjo8+dO4fEHBwcTp48iXwoJM9uIqAnH8h7ElGETqePST2qw9PT09XV9eHDhwCA8vJyFKwiE5FIBIcoAABJNKtIJMrLy+vv71+zZo1MszGDwfD29tbX1//mm2+I8injQY5wOp0uP70yyYiPwl03bdpEJIOM2CQhKwUFBQwG45dffiGfYGAYhrxln376qVxhKdAwFR4eTiTT3Nw8efLknJyckae8vLwOHz6MPsKkvHQ6Xe5+kjNnzqCF3IEDBxRVG4If3+rq6ojE/vjHP3p6ehLtUefz+bD/ODg4wK37eCQSCfT30ul0oqQdJERHR0P1amtrFb32d8rp06fhV/bx8SGXRHaf6dOnE+2wGhgYQPFdlpaWRO/GysjIoNFoVH7ksrIydM+w2Wy58mRdHQVv2drayhTIy8tDjRFFCAmFQhcXF4obyNBG36ioKCryeL7++mt47dKlS2UKCAQCDw8PmfkqYETK8+fP4cf29nboOpYb/ywWi6XiJagkEpYJCkm4ceOGTIHLly+zWCwOh0NUAxpPLl26NPIsn8+HK5ElS5YooZ6Hhwd4PQLgEQKBAMVEk/+tKLsxSbSo1JqRaB0+PDzs5OTk7e0tEAjI1du0aRN6cLS3t8v9OmRdXSQSoUG7pKRE6mxHR4ednV1CQoKrqyuUQXlUEBKJZOvWrZ6enjCbDRXgj6tEHg+BQACnvnQ6feRDUSgURkREODs7DwwMjLy2rKzs4MGD6OPf/vY3+I2+/PJL8kZHrjaVfm/s559/DmuQOSspLS01MjIisWs+ePAATtctLCxk7pOByQIAAHv27FFUN4FAAOeTct9zMsEoLi6G71H38fEhsjqjF6UEBgaOfH8jAm1kgpDMFCorK/X09EJCQkhSDCE7ApPJJNmyhUdODDyPx4N7VGbNmoWfWHI4HA8PD3d39/7+/gcPHsC9oi4uLvhpSXNzc3Bw8Jw5c1pbW6moAomJiYHfQaGrIPn5+fCP8fDwwF/e0NDg5uY2d+7clpYWuZVIJBJHR0cAAIvForINeNmyZfi/MCAgQFG1IWKxeO3atfBRhQ+8l0gkR44c0dPTS01NJbkcRd3s2rVLpsD7778PBZTYxY2ipE6cOKHotb93vv32WxhKsH379pEjVllZGTTueHp6SuUdkELKuUu+RL18+TJ0+N27d0/q1NDQ0N69e9F4TrGfY1TexNrc3Pzuu+8yGAwdHR0/P7/Y2Ni1a9cymcyIiAiUQKKxsRGafAwNDf39/bdv3+7j48NkMmNjY/v6+iiqAoHvWgYAZGVlKXQhpKKiYs2aNTQajcViBQQE7Nixw8/Pj8FgbN++nWK6C+RViomJoSLf1NQUEBBgZGS0ePHipKQkFxcXJdSGCIXCjz76CBo4XVxcIiMjIyMjbWxs7O3tb968SXLh0NAQCp8gkoQLRV1dXUX/EQzDPvroI3gtlYnixOPJkyeLFy8GADg6OmZmZj579ozP55eWlsbFxdHpdBqNtnPnTiqjQlpamq2tramp6e7du+W+2u2HH36Ar83y9vbevXt3enr6hQsX9uzZA28POp3OZrMV+jt+exMrOc+fPy8tLW1sbGxpaZkyZUpAQABcvOHhcrkFBQVcLlcoFFpZWQUGBipqRQcAYBg2e/ZsDoezZcsWtPxWlMbGxry8vNbW1qGhIXt7+6CgIOp+l4iICLjtpKSkRNH9JFeuXPnggw9QhjzlGB4evnnzZm1tLY/HMzExcXNz8/PzI3f4lZWVwcmFjo4On88fGbva09NjYmIiFouXLl0K028rhLu7e2VlZVBQEMog+LohEomuXbuWmZl5584dGLhCp9Pt7e3Dw8PfeecdFXkThELhxYsXs7KySkpKYOiejo6Ok5PTxo0b3377bUpJpvBQfyqoDbhUZjKZSow/o6SzsxOmoJw3b54Sl3/++eerVq0ac63k8u2338J/c+HChTIFrly5AgWUWKijrDjff//9qDWdCHR1dbW0tKgtVy/k5cuX7e3tJLYAuYyjIHAEm83W1dUdGBhAO73URmZmJswBuG3bNnRw586dyIFJTlNTE1E6LZWC8hYSOcyR6QgFLz99+jQqKopK5ZmZmQAAMzMzmApey5QpU6ysrCimlxwrTE1Nzc3NRxPNNR67uoWFBUwgQx7rrwouXLgAANDV1UUBCY2NjadPnx6Z7lomN27c0MhuOeSoI4rTgtHUdDp9+fLl8MilS5c6Ozvl1iwUCuFvkpiYOJpkaVo0zxjOMcYQLpcLt7sUFRWprdGuri7orwoKCkIH9+3bR5R+R4rq6mp9ff1Xr16pTEFCBgYG4CATFxc38uzFixfhf41flXh6el64cEFuzadOnQIAWFhYyHRSavkdMU67OvZ/+YPXrVunthZRAnbk1qqvrzcyMiotLaVyOZvNViLyZ6xISEgAACxatEjqeHZ2toGBAfSKr127Fh589OjR1KlT5fZekUgEY7/l7lPSMv4Zv119YGAAGjZzc3PV0yLcfgcA+Ne//oVhGIfDmT9/PkVPclVVFYPBqK+vV7GOhPD5fPhGx9OnT6Mj+/btMzY2vnLlCswibGtrOzw8LBKJVq9enZKSIrdOmG/Y399fxbprUQfjt6tjGFZUVKSrq2tra6s2U3xJSYmVldXUqVO9vb1ZLBaV/oBhGJ/Pd3Z2lnrzhPrp6OgIDQ2l0Wiurq6+vr4sFis0NBQ+fXp7e2Hw5qxZs6ytrdeuXSvXr8vhcJhMpomJybNnz9SivhbVQtWvrilSU1P37NmTkJCA4kZVTX9/f3l5OZ/Pd3d3x78gjQixWLxhw4bBwcHbt2+Ph6RrL1++/OmnnzAMc3V1ldpuWFtb+/DhQzs7u2XLlpGnBsMwzNfXt7CwMDs7W2t4nyBo+FFDATabDQA4c+aMphWRzaNHj0JCQpTYKzaegaGXn332maYV0TJm/A66ukgkCg4O1tXVvX37tqZ1eS04f/48ACApKUnTimgZS8b7BB4iEomio6NzcnIKCwvRRjotquDWrVtBQUH79++HljwtE4b/B5UvLGab/6dVAAAAAElFTkSuQmCC;rotation=-30;" parent="1" vertex="1">
          <mxGeometry x="692.0025859584634" y="160.0014451261267" width="158.34" height="25.13" as="geometry" />
        </mxCell>
        <mxCell id="3eV-yUBCJRz-t-QJoyjE-1" value="" style="shape=image;verticalLabelPosition=bottom;labelBackgroundColor=default;verticalAlign=top;aspect=fixed;imageAspect=0;image=data:image/png,iVBORw0KGgoAAAANSUhEUgAAANcAAAA8CAIAAAB6nLijAAAACXBIWXMAAA7EAAAOxAGVKw4bAAAOrElEQVR4nO2de1BU5RvHn73AchGQ5W7cJUURiqBiDDCmIcqItClqwIicwBkgjECGGq2IMZ1GRyf/yASlCTEzGwIDRgW7cBHzulxTYSFSEIGVO+wuu+f3xzu+vx04e/bs2V3Ouu3nr2fPed/nPGf2u+95z/NelkMQBJgxwypctgMwY8asQjNGgFmFZtjHrEIz7GNWoRn2MavQDPuYVWiGfcwqNMM+xqLC0dHR9vZ2tqMgp7u7e2BggO0oTBmjUGFTU1NQUND58+fZDoSc5ubmoKCg2tpatgMxXQjdkEqlOnqorq4WCATbtm3T0Y9BKSoq4vF4x48fZzsQ04ShCltbW7du3erq6goA7u7uSUlJ/f39DPzU19dbWlrGxcXJ5XJmkSwZaWlpXC73559/ZjsQE0RrFcpkspycHB6Pt2rVqmPHjvX29lZVVQmFQnt7+9bWVq1cdXR0ODg4BAYGTkxMaBvG0iOXy6Ojo62srFpaWtiOxUiRyWQKhYJBRe1UODk5GRUVBQAbNmyQSCT4+DfffAMAvr6+s7OzNF1NTU0FBgZyudzm5matYmARsVi8bNkyLy+v4eFhtmMxOjo7O319fePj4xnU1UKFUqk0NjYWAFauXDk2NqZ6SiaTCQQCADhw4ABNb1u3bgWAjz76SItgjQD0e3vttdfYDsSImJ2d3b9//7JlywAgIiKCgQe6KlQoFG+++SYA8Pn8q1evLi7w1FNPAUBYWBgdb/X19QDg5uY2PT2tRbAEQRDE0NBQZGSkUCg8ceKEtnV1Z35+fs2aNQDwww8/LP3VjYrR0dH6+vr333/fwcEBv+waVoWFhYXoMjk5OaQFXn/9dQDgcrmqT2pS5HL5qlWrAGD//v3aBUsQBEFkZWWhSOLi4hhU152ffvoJvZNNTU2xEgC7ZGdnr1271tnZGX0LAoEgMTFxKVTY1tZmaWkJAE5OTuPj46RltmzZguKoqKig9lZcXAwArq6uDBpCgiA8PDzQhdh6miuVyrVr1wJAYWEhKwGwS05OTmRk5ObNm/Pz80+dOoUaHYOrcH5+Pjw8HF1j9+7d6oqlpqaiMnl5eRTe5HK5l5cXAOzatYtBuLdu3cI3rFHuhuPAgQMAYGdnNzk5yVYMRoWOKtQ8dnLw4MErV64AwPLlyzMzM9UVm56eRsa///5L4a26uhoVeOeddzReejF//PEHMrhcbnR0NAMPeiElJUUgEExOTp48eZKtGEwJDSqcnp7eu3cvstPS0lT7oQuQSCTIGB0dpXBYWloKABEREY8//rh2kQKAigpDQkKEQiEDD3pBKBRu3LgRAEpKStiKwZTQoMLDhw+PjIwg+91336Uo+c8//yBjfn5eXZn79+9XV1cDwBtvvKFdmA/BKoyJiWHmQV+8/PLLAHDp0qW2tjZ2IzEBqFQ4Nze3b98+ZIeFhQUFBakrOT8/39/fj2yKJqqsrAxp9IUXXmAQa29vL37cP//88ww86BGkQnjYupvRBSoVlpaW3rt3D9koWaiOzs5OmUyGbBcXF3XFampqAEAoFIaEhGgdqdF0ChGenp6rV68GAKOdCvQIwac4p/orxz99Um7cuIFtnElagFwub2lpAYD169dzubRmlM3OziqVSvzxwoULyAgODrawsMDvQxYWFiiRtMSEhYXdvHmzo6NDIpGw2Ek1AdSqoaen5/Lly8hesWIFdeuFS4J6FV69enVmZgYAgoODNYYll8s9PDxsbGyWqVBWVobOikQi1eMCgeDzzz/X6FPvhIaGAgBBEI2NjUt/dVNCbVuomoOgbggBoKmpCdvr1q0jLdPQ0IAMiv4lxsLCoqCg4O7duzgXde/evePHjyM7KSlpxYoVuLCtrS0auVlikAoB4M8//0xISFj6AEwHdYlEVa2cPn2aIuU4OTnJ4/FQSQ6Hs2CiAwYnCK9cucIgsXn06FFUncfjqRu/WWJ6enpQSGyNJRoPWCrMstbkbWF/f39HRwf+WFNTQ/HQGRoaUigUyF6zZo26nGJvby8y1D2yqfntt9+QERYWZm9vz8CD3nnssceQ0dfXp7u3O3fu5ObmDg4OEgbbv8rR0TE3N3fDhg0G8s8YchVeunRJ9eOxY8dounv22WfVncIqXL58OU1vqmAVsp6jwQgEAhcXl+Hh4b6+PoIgOByOLt5EItGpU6f0FZs61q1b98ioEL3MIjIzM/GEGlKio6M7OzuxTVpGJpOhZWwcDsfOzk7bKG/fvn337l1kG48KAcDd3X14eFgqlQ4ODqp2VRnwyiuvtLa2GrotxH1Zo0KzCmNjY52cnNTVf/Dgwd9//41sS0vLTZs2kRZDPTkAsLOzo5mmUQU3hDweLzIyUtvqhsPGxgYZDx480FGFABAcHEwngWB6kAhCqVReu3YN2RwOh/pbv3DhAk7pvfTSS+qetihHAzo/jsPCwhg0pYbD2toaGfgGzTCARIUSiWRubg7ZgYGBFA0hAKiu0n377bfVFcNfEsV8CAp+//13ZBjV4xjMKtQTJCrE0xdAJSVGCkEQWIW2travvvqqupJ4igODQY6bN2/igURjUyF+I5HL5exG8kijQYVPPPEEReWmpia8dUZaWhpa/0IK7j9NTExoGyJuCI2tUwgA4+PjyMA3aIYBGlSIVvqoo7y8HBmWlpZ5eXkUJXVRIe4UhoeHG1WnEFRUaGtry24kjzQk78g4BQ0A3t7e6mpKpVK0DggAUlNTcQqXFPwl4a+NPsw6hY2NjdevX/fx8YmLi0OrVDHt7e1dXV2Dg4Pe3t4RERHu7u7ahoQxt4V6gUSFqlOzKLIPZWVlaFo1n8/Pz8+nvoy9vb29vf3ExMTc3JxMJqPfO7x169bQ0BCy6atw165dR48ejY6O3rFjh7u7e1VVFZqNUVdXt3PnzsHBwdDQUDs7uy+++GJ6ejovL6+oqIim5wWMjY0hg/pHSAexWJyenj4wMGC4fKFQKNy5c6fGWQEssHhQr6urC5+dmZkhHfhTKpWBgYGozCeffEJnrBB3MbXa2AAt2AMAPp9PupFIRUXFhx9+qHqktrbWx8dnZGSEeLhs1N/fX6FQ7N2718PDo7y8HO9iIRaLUTP57bff0g8Jo1Ao0NuJm5sbg+oLOHfu3BJ83Z999pnuoS4G+9fbOLKbmxu28TSFBVRUVKBk9erVqz/99FM69+/r6ysSiQBgZGSE/lAynolDmilUKpX5+fkL1g/s27cvNzcXJZj8/f0BQCwWv/fee42NjY2NjegIws/PLzw8vKmpqaSkJD09nWZIGJyK9/Pz07buYmJjY+/cuTM0NEQYrC10cHBQvX0jglSbeEINafMjlUoDAgIAgMPhNDQ00NR7bm4u8llZWUn/V4LWzwNAfn7+4rM//vijtbU1eoohuru7+Xw+GgcjCGL79u2ouq2tbVtb22IPaP2KtbU1/ZAwaGkiAGzZsoVBdVMCy0mfK0Fx5k/1fRnz9ddfd3d3A8DHH39MP3Wyfv16ZOARP40QKrOnIiIiFpydnZ0tKCjIzc3F6+QB4PTp01FRUfiF4+LFi8jYs2cP6cRHsVgMAI6OjjRDUgVPO3ruuecYVDfzf0i1iWetnjlzZsEpkUiEBgxSU1O10jt+yUhJSaFfC78qLd6vLTs7OzAwcMEuYSUlJVVVVciemJjg8/kAEBAQMD8/v9j5/fv3UccuJiZGq3tB4Hey9vZ2BtVNhqmpKSynkJAQBh7IVahQKNCoSUZGhupxiUSCHpHx8fEM9r1Ey4UCAgLoV3nxxRfR7S3YYO7w4cM+Pj5oSpU60KpTUPM0JwjixIkTqEBRURH9kDDoae7k5KRUKhlUNxnwBGQAEAgE2m5jSVDsENLS0mJlZeXg4NDV1YWOdHV1oaXsKSkp9PcpVCUtLQ3Fiqby06G5uRnNwTl06BA6IpFIMjIyvLy8enp6qOvinujZs2dJC+Dp33/99Rf9u0DMzc1ZWVkBwObNm7Wt+0jT3NyclZWVkZGRnp6emJi4eHTN0tIyMjIyOTl527ZtmZmZWVlZqh13Uqj2qamtrXVxcXFyckpKSoqOjubz+d7e3rrsmIY2jAMtt10rLS21t7e3trZOTU1NSEhwdHSMiYm5ffu2xopoMzsej6fuHQtNrfD29mbQmOERHerlEKZHSUmJtbW1s7Ozh4eHl5eXr6+vv7//yof4+/v7+fn5+Ph4enq6ubkJhUKBQKCxx6Jht6SJiYnvvvuuoKCgsLCwtraWtHdFH6VSuXLlSgBITEzUquLAwMD3339fUFBw8ODBixcv0qkyNjaGGtHQ0FDSApWVlUhG1Ns7qQONWDo7O+u+v7wZXff415Yvv/wSAGxsbAy9+d+ZM2eQyNRtMIezjCKRCB2Zm5uLi4tTl6hXRaFQoMGS7du36zPo/ypLrcKBgQH03mrovVBxp/DXX39dfHZ0dBSNmjz55JP4YHl5uaenJ52nc11dHXJ+48YNfQb9X2Wp/3XHw8PjrbfeAoBDhw4Z9EJoOxEej4e2g19ATU2NVCoFgOTkZHzwyJEj2dnZdBYxHTlyBAA2btxIPfPNDF2WXvhisRjNZqA/7qIt4+PjaOzxmWeeIS2AkwuNjY3oyMmTJ11cXOj850VnZyeXy+VwONeuXdNn0P9hWPgHMj8/v+zsbADYs2ePgS7R1NSE5qepW/UYFRWFOgYEQQBAXV1dTk7OL7/8Qmf+4u7du5VKZWpqqnGuZ3skYUX7MzMzaCS6urraEP5RvlogEFDsA1FcXGxjY+Pl5fX000+7urrSHN2+fPkyj8dzdXUdHR3VX7z/ddhRIUEQDQ0NfD7fx8fHEC/LSqXy3LlzGnOKQ0NDlZWVZ8+epfnnUzKZLDg4mMPh4EFCM3qBNRUSBPHVV18BwAcffMBiDFqBdgbbsWMH24GYGmyqkHj4zwDFxcXshkGHmpoaHo+XkJCgY+rezGJYVqFcLt+0aROfzz9//jy7kVAjEons7OxiYmKY/UeLGWpYViFBEDKZLDk52cHB4fr162zHQk5fX5+np2d8fLxZggbif76E0ff3M7GiAAAAAElFTkSuQmCC;" parent="1" vertex="1">
          <mxGeometry x="440" y="400" width="107.5" height="30" as="geometry" />
        </mxCell>
        <mxCell id="tHz7xv7v6N_URBj-7UDH-1" value="" style="shape=image;verticalLabelPosition=bottom;labelBackgroundColor=default;verticalAlign=top;aspect=fixed;imageAspect=0;image=data:image/png,iVBORw0KGgoAAAANSUhEUgAAAKoAAABQCAIAAAAGHXmqAAAACXBIWXMAAA7EAAAOxAGVKw4bAAAJPElEQVR4nO2de0hTURzH76ab181H6nzUpqIm5lIxxITSfBBqEhhCZtADQ6w/hIoSShKMIqR/0h4QlVpUYBq9zQe61CxKZWU+UMr5SCdumovZnNu8648Ll4u17bp7d7e58/kjzlnn/M7P+z2/c8899+yModfrIYCjwrS2AwBrAuR3aID8Dg2Q3+7R6XSVlZUvXrwwoy4DTP3snebm5szMTCcnp8nJyU2bNq2pLoh+u8fX1xeCoJWVlcrKyrXWBdG/HoiNje3r63N3d5dIJDwej3hFEP3rgYsXL0IQpFQqMzIy5ufniVd0tphLAELMzs5WV1fPzMxotVqzjej1ejabrdFoxGJxampqY2Mjn88nWhNgRc6cOWO26oY4ceIEwdZB9FuZ9PT0169fS6VSnU5nthG1Wo2lORxOdnY20ZoW7doAGigrK8PUzM7OlkgkxOsC+e2bkpISVHgul/vkyZO1VgcPfnbMo0ePDh8+DEGQj49Pa2trbGzsWi0A+e2Y6OjogYEBLpf7/v37bdu2mWEBPPfbMQcOHPD396+rqzNPe8ha0T83N3fz5s2cnJyYmBj6WwdgWEf+8+fPl5eXC4XCwcFB+lsHYFhn8EffUgwNDTU2NlrFAQCKdeTPy8uDYRiCoMuXL4O5pxGGh4fPnj07MjJiqQYofg4lzKlTp1AH8vPzV1ZWrOWGLSMSiby8vCAIKi0ttVAT5iz6isXiV69eyWQyPYnAlcvlaKKmpmZpaenBgwdsNttsa+sMmUxWWlp69+5d9AqTeRtkAjO6TFxcHOVu1NbWUtyx7RC1Wt3c3Jyfn4/eGTHOnTtnoRbNif6cnBy5XC6Xy/XmRj+CIBqNBssGBQXt3LnTPFN2TUtLy8ePH5VKpUQiGRkZGR0dRS/LKvktiIW6lRFUKlVWVhbaOovFKi4uViqV9LthC2ATIBQ3N7c9e/bU1tZ++vQJ/7ltRT8Z1Gr13r17RSIRBEGhoaHPnz935JWfzMxMHo/n5eXl7+8vFAojIiKYTCYEQX19ffQ4QLf8RUVFqPbx8fHNzc3ozNZhycjIyMjIsKIDtMovl8tramogCBIKhS0tLRs2bKCzdcC/0Co/j8fLzMyUSCQNDQ1Ae1uAVvkZDEZDQwOdLQKMA174OjRAfocGyO/QUCC/VCrt7u6enp42VEChUOjBaz2bxEz5dTpdfX19amqqu7s7n89PSEgQCATR0dGPHz9eVfL+/ft8Pv/ly5ekXQVQjznyP3z4MDQ0NDc3t6OjIysrq6qqqqenp76+XiAQHDp0qLi4GIv169ev5+fnq1QqMzahAuhgTUvECoXi4MGDaMXg4OC2trZVBdBF7Fu3bun1+rq6OgaDAUFQUFAQRUvUjsLXr1/xGlluzX8N8k9MTISGhqIORUZG/vr1698yKysrWVlZPj4+PT09bm5uaOEjR45Q57BDQJv8RJd9pqen09LSJBIJBEH+/v5v377973I9k8ksLy+PiYlJTExcXl5GP0xJSSHYikl6e3vFYrFSqaTKIEFgGI6MjExLS6O5XYtDpI/Mzc1FRESg5RkMxocPH4yX3759O76J0dFRKnqqXi6Xoy/ErEVnZyclf4hJaIt+QlezsLAQ222Yl5e3Y8cO4+Xx4S4QCLBbBknc3d2xXkg/AQEBgYGB1mrdQpge/Gtqap49e4amWSzWpUuXTFaRSqVYmsKR38XFZWhoSKVS0T/4u7q6enh40NwoDZiQXyqVnjx5EssWFBSEhYWZNNrV1YWlKZQfhcPhcDgcam06LCYG/6tXr+JDrbCw0KTFnz9/jo+PY9nk5GRzfQNYHGPyy2SyO3fuYNnw8HAiqzcdHR1Yms/nb968mYx/AItiTP6KioqlpSUsS/DIELz8lI/8AGoxJn9dXR0+m56eTsRie3s7lgYjv41jUP7h4eHR0VEsC8NwUlKSSXNTU1M/fvzAsiD6bRyD8q/alZWUlETkuwf40N+4cWN4eDgJ3wAWx6D8vb29+CzBb+Ggm7hRQOjbPgaf+/FLNxAExcfHEzH37t07LG0h+REEwU9I6cHFxcXZeR2egWjwT5qZmcFnicg/NjZm0Sd+rVabmJgoFovJnIBoHkwmMywsrK2tbZ2t+xoc/Ofm5rB0YGAgeh6Hcdra2rB0QEAA5evzCwsL3d3d9GsPQRCCIN+/f8fPhdcHBqPfw8NjYWEBTROcwbW2tmJpSzzy+fn5tbe39/b2Li4uUm7cODAMb9myZf3NZgzK7+vrOzExgaaJ/EYEgiD46LfQlUpOTgZrCRRicPDHn+Hg6upq0lBTUxP+fgFEsgsMyp+amoqlTf5CgEKhOH78OJb18/OLjIwk75zDoqdrX7xB+bOzs7Hp3ufPn42YUKvV+/fvn5qawj5Zf/dImlk1ufnz54+FGjIoPwzDp0+fRtPT09NDQ0P/Lba8vLxv3z78XR8CIz9pxGIxPmvB0x6MbATTarUJCQlosd27dyMIsqpAf39/XFwcm81etQVocHDQQnvT1jcKheLbt28VFRVcLneVTAUFBV1dXTKZTKfTUdiiia2es7Oz2OErJSUlWq0W/Vwul5eVlbHZbD6fLxKJqqurMUd9fX3/7SiA/9LX1wfDMAzDLBaLeMQ6Ozu7uLjAMHzhwgWSDphYyPTz8+vs7CwpKbl9+/aVK1fu3bsnFAp///49MDDg5OR07Nix8vJyT0/Po0ePYlWSk5PRb3cATKLX65lMJpfLRXsAi8VycnJiMplMJhN/DVGpEARBEESr1Wo0Go1Go1KpEAQh6QDRI52npqaePn3a398/Pz8vEAiioqJyc3O9vb3R/w0ODp6cnETTN27cKCoqIukWgB4oONF7fHw8JCQEy/b390dFRZG0CaAHCr41gX/Hz+Pxtm7dSt4mgB4okB+/uW/Xrl3gxm9HUBz9YMHHviAr/8TEBNjVb7+QlR8f+t7e3tHR0SQNAuiErPz43V3gxm93kJJfp9M1NTVhWWyFGGAvkJL/2rVrs7OzWJboj4YDbIa1Lfu8efNGJBItLi4uLCx8+fJl1d43T0/PlJSUgIAAGIajoqIKCgqo9hZAMWuTPyQkBD/PNwKHw1lcXARTARtnbXvXq6qqxsbG0NdN2L/Ozs7LONRqtUajiYmJAdrbPuAnnB0acKavQwPkd2iA/A7NX8VN+K1U5GDBAAAAAElFTkSuQmCC;" vertex="1" parent="1">
          <mxGeometry x="448.46" y="431.5" width="85" height="40" as="geometry" />
        </mxCell>
        <mxCell id="tHz7xv7v6N_URBj-7UDH-2" value="" style="shape=image;verticalLabelPosition=bottom;labelBackgroundColor=default;verticalAlign=top;aspect=fixed;imageAspect=0;image=data:image/png,iVBORw0KGgoAAAANSUhEUgAAAv4AAABQCAIAAADujuZZAAAACXBIWXMAAA7EAAAOxAGVKw4bAAAgAElEQVR4nO2dd1xTSffwJwESUAQBEcWG4oIdVxewYXexrGIvK2t/xC42UFFx7Q0Ru6Jrwc5aUBTsigo2UBALgmCjKALSSyB5/5j3md88N+HmlglBvN8//CTxzrnDzeTcc8+cIlIoFEBAQEBAQEBA4OdArO0JCAgICAgICAhUHLranoCAwM9Cbm7u3r17x44da2lpSVZyZGRkbm4uWZlapEmTJg0bNtT2LAQEBCopHz58OHfunJubW7Vq1bhJEAkbXgICFcCnT5+cnZ2TkpIePXrUpk0bssLt7e2fPn1KVqYWWb9+/eLFi7U9CwEBgUpKZGSko6NjixYtrl69WrduXQ4ShA0vAQGNEx8f36lTp9evXx88eJC43SMgICDwU9G+ffsdO3a8ePGia9euHz584CBB8PoICGiWDx8+ODk5ffr0acmSJevWrdPEKYQNLwEBgZ+N+fPn+/r6NmnS5MGDB3Xq1GE1VjB9BAQ0SHp6eqdOnRISEgYNGnT+/HmxWPCzCggICBBALpcPGjTo8uXLdnZ2d+/eNTY2Zj5WMH0EBDSFTCbr1q1bREREw4YNY2Nja9Sooe0ZCQgICFQdMjIy7OzskpOTe/bsGRoaqqenx3Cg8AwqIKApPD09IyIiAAD79+8X7B4BAQEBspiZmQUEBIhEolu3brHKjRBMn5+a9PT0ESNGrFq1StsT4cXIkSMXLlxYXFys7Yn8D+fPn/f19QUAjB8/3tnZmaDkZ8+eOTo6Xr9+naDMqkGlXc/FxcUtW7Y8dOiQtidCktLS0mXLlvXv31/bE1EBQZ1QOdWLAKJHjx6TJk0CAGzbti0sLIzpMIXAz0pMTEzDhg1NTU2fP3+u7bnw4syZMzo6Op07d05PT9f2XP4/ycnJcOPZwsIiIyODoOTTp0/r6+u3b9/++/fvBMVWASr5ep49ezYAYMaMGaWlpdqeCwGysrJ69uwpEomOHDmi7bmogKBOqITqRYBCZmZmrVq1AACNGzfOyclhMkQ7po9MJtu2bdv58+e1cvYfDrlcLpPJyMp8+vSpiYmJVCq9d+8eWclaAT5Pt2zZMi0tTdtzUSgUipEjR8JHix07dhAU6+/vLxKJGjdu/OXLF4JiqwAVvJ7LyspycnIKCwtZjZo4cSIAYPTo0cR/zkRgrpa/ffv266+/AgA2b95cARNTKBQFBQU5OTllZWXMhxDUCZVNvfycXLx40cfHp7zfDnSxAwCmTJnCRJp2TJ/Q0FAAgI6OTnJyslYm8EPw4cMHb2/vVq1aSaVSPT29Nm3azJ8/Pysri7/kFy9e1KxZUyQSnThxgr+0SoK3tzdUT0QuER+uXr0Kf4T169cvKioiJfbIkSMikahmzZqvXr0iJbNqoOn1nJ2dHRQUtGjRogEDBjRp0sTQ0BB5zQ0MDBwcHGbMmPHPP/+ovS+WlJT07t0bAODq6iqXyzUxVT4wVMs5OTnQ7nFzc9PQTGJjY319fSdMmODo6FirVi0UuyoSierXrz948OA1a9bcuXNH7TUkqBMqj3r5OcnJyYHL4PTp0yoPKC4utrKyguvk7t27agVqJ8MrKiqqffv2AAAPD4+NGzdW/AQqOSUlJatXr96yZUtRUVH37t0HDx6sq6t75syZsLAwCwuL8+fPd+zYkbPw5OTkDh06fP78efXq1cuWLSM4ba0zbty4gICAbt26Xbt2TSKRaGUOJSUlLVu2TEhIAADs3r17+vTpRMTeuHEDBlVcvXq1R48e5R0mk8mWLl2alpYmlUr19fWl/0UikZSVlZX8L8XFxSKRaOPGjRYWFhQ579+/X7duXVFRkUQiMTAw0NfXNzAwkEqlYrG4tLQUjsVFmZqa+vj46OjoqJxVfn6+l5dXRkYGPiU4q+Li4oKCgsLCwoKCAolEsnHjRiMjI1ZXRnPrOT8/PzAw8MiRI/fv3y8tLVV7vL6+/ubNm2fNmkVzTE5OTqdOnV6+fLl48eL169eTmywBmKjl0tLSAQMGXLt2zdnZOTg4WFeXZCuk6OjoQ4cOnTlzJjU1lcnxDg4O58+fp28LQ1AnVAb18tNSVlZmbm6elZXl4ODw6NEjlcfs2bNnxowZAICOHTuGh4erkUjYNmOMnZ0dAKBGjRrCBiqFjx8/Ojg4AAB0dXX37NmDPpfL5V26dAEAmJubJyYmchNeXFwMhffs2ZPQfCsReXl5TZo0AQBMnz5dW3PYs2cP/GU1aNCguLiYiMykpKSaNWsCAFatWkV/5Nu3b9nqlCtXrijL8fPzYyVELBbT+Dzu37/PUA5bh5aG1nNubu7y5ctx7w5DRCKR2h236OhoeOM8deoUwTkTQa1anjt3LgDA3Nz827dvBM977949bo9zffr0oZdMUCdUBvXyMzNnzhz4pYeGhqo8oKCgwMzMDB4TFBREL01rps+FCxfgFNu1a0f2V/RDExcXBx9i9PT0rl69SvnfZ8+eiUQiAEDfvn25yYerp3r16pyNp0pOWFgYLBsYEBBQ8WeXyWTI6arWTGFIcXGxvb09AMDOzq6kpETt8ffu3QsMDDx06NDcuXNV3rxtbGxmz569Y8eOY8eOlecZzs/Pv3LlyokTJ/bs2TN27FiVd52uXbuuWLHiwIED58+ff/nyJc2U5HJ5cHDw9u3bhw0bpvy4bGFhMWzYMB8fn6dPn7K9OMTXc2lp6f79+5EbTCwWN2vWbPTo0e7u7t7e3uvWrVu4cKGrq2uzZs3gL1GZJUuWqD3LmjVrAACGhoavX78mMm1S0Kvlc+fOwf89c+YMqTPGx8cPGzYMXT0TE5MePXq4ubktXrx43bp1y5cvnzlzZu/evcvzBero6OTn59OfgqBO0K56+clJTU01MDAAAJiampanK5YvXw4XRsuWLekjw7hseH358uWff/5JTU2VyWRsxyIUCsWhQ4dKSkoAAK1btw4JCalXrx5naVWDhISErl27Qmfvtm3b4AMWBVtbW/hkf//+/c6dO7OSHxoa2q9fPwDA9u3bYb5JlcTd3d3Pz8/IyCg2NrZBgwYVeepDhw7BNEuRSPT+/Xsi3RiWLFmyYcMGXV3dR48etWvXjtXYjRs3Umpd/Oc//9m7dy/botL9+/cPCQnBP9mxYwf9zk55PHr0qGfPngUFBQAAqVS6ePHiJUuWSKVSDqKIr+cbN264u7u/fPkSANCtW7eJEye6uLhAf5syWVlZFy9eXLp0aUpKCv751KlT9+3bR3+isrIyR0fHyMjI33777eHDh+VtFLJC02o5LS2tefPm379/HzJkCLKB+ABda7t375bJZCYmJpMnTx41atRvv/2m8mC5XB4TE7N169aAgADKf6WkpKhtYElQJ2hRvfy4yGSyAwcOJCQkwB8+Z0JCQmDHLmNj40uXLjk5OVEOSEpKsra2hlbNiRMnxowZU64sDsbXggUL+MxeJdOmTeMwk6pEVlaWra0tvBqDBw8u77BRo0bBY8aPH89Kfl5eXqNGjQAA7dq1Y5UooZJt27aZmpq2bt1a2TWldTIyMmBieb9+/SryvHK53MbGBn47vXv3JiLz2bNnMJzC3d2dw3AUcI149OgRBzmUn7yuri6fHKXBgwcDAPT19R88eMBZCNn1rFAoNmzYAC1CW1vbsLAwhqNiYmIo7p9//vmHycCbN2/C4zdu3Mhj1v+HptXy8OHDAQAGBgYpKSn8Z5uYmNiyZUsAgEgk8vDwyM7OZjgQdxEBABo2bMhkFEGdoC318kNz6dIl4ouzWbNmKs/VtWtXeEDnzp1ppsTF9Ll69aqNjY2hoaE+D/C/oVq1aiEhIRxmUpXo27cvvBo1atSgybCAiQYAAFNTU1a3n/nz58OBajdB1XLnzh303VXOmKHVq1fD6VVkOAV+WY4fP85foFwuhw/BBgYGqampHCRERUVR9MXt27c5yKF0XdXV1eUgBNGzZ0/Ae9OE4HouKipydXWF0saOHZubm8tqOLJ3oSr7+vUrw4G9evUCAOjr679//579rKloVC1fvHgRfjhv3jz+U71z5w6swmJubs722enEiRP4JBctWsRwIEGdoBX18kPz8eNHe3t7ExMTPouT4qteuXKlynMdOHAAHfPixYvypqSdWJ+VK1eiybm4uFTVuBPm+Pv7owuyZcsWmiM3b96Mjnz8+DFD+e/fv4cxFm3btuWfVTt69Gg0h9GjR/OUpglyc3PNzc0BAE2aNCEVa6yW8ePHw2silUrVxh8wAWn5uXPncpMAncM4//77Lwc5+/fvp8hhWDdMmefPn4tEorFjx3IbDiG4ntPS0jp06AD/KG7hWY0bN0aXhZVz7uHDh3CUq6srh/MSpzy1XFZW1rx5cwCAvr4+f5fP/v37YZZyo0aNPn78yHb4kSNH0CT19fWZPxIQ1AlaUS8MycjIePHixb17996+fcvWiK/MXLlypVq1avB7b9269Z07d8o7Mj09HRlJs2bNKu8wLZg+S5cuhdOqXr16eTn6PxWfP39GLWcbNmxIH8q6a9cu9Mvfu3cvw1PAWmoAgLNnz/KfMJ4LvXPnTv4CNQFaZn5+fhVwutzc3OrVq8Mz9urVi79AmUz2yy+/QEOKc/mrvLw8ismyb98+DnLOnj1LkZOUlMRtSr169TI2NuZZGo7Uev727Zu1tTUUNX/+fA4SoqOj0TUxNTVl7vKBdOrUCQAgEomioqI4nJ0gNGoZWRuzZ8/meZatW7dCURYWFvHx8RwkDBkyBF3w5cuXsxpLUCdUsHqh4fv37ydPnhw1apSVlZVyzJyRkVHLli3nzZt3586dH7eMeHBwMEqP8PT0VPuHoGxBY2PjgoIClcdUtOmDgtTMzMyePXtWwWevnAwYMACt1F27dtEfvHv3bnQwQ02UkJAA4yjr1avHPyri9evX+E8rNjaWp0ANkZiYCIMw6tatWwG/+cOHD6NrQiR6A/V7GjNmDB85FG24bt06DkJu375NUakcsrEUCsX58+cBAL6+vhzGIkit55KSEhQW0KlTJ26i8Duxv78/2+HoWx45ciSHs5OCRi2XlZXBjG4AwJs3b/ic5fLly+hxnFuEw7Nnz5CEpk2bsq2mTVAnVLB6UUlwcPDvv/8OXWjVqlXr06fP5MmTly9fvmfPnmPHjm3ZsmX+/PmjR4+G9Sfhlzt58uR3795pZbacef36NcxUFYvFhw8fZjIEZlBCLly4oPKYijZ9WrVqBQCoXr261p9yKgnHjh1DX1LdunXVFv/FN7yGDh3K5BRLliyBx3t4ePCfMJ69UqtWrUpYlBbRp08fOM+LFy9q+lx49CURmx49uKisu8McSsG3BQsWcBDi5uZGMX04hLcXFxdbW1vb2toySdGngdR6njJlCpRjYGAQFxfHQQLeK3HAgAEcJOTn50OPr0Qi0WKFMxq1jCLlHRwc+Jzi5cuXKEF98uTJ3ITA6CgAgK6ubnh4OAcJBHVCRaoXCo8fP+7WrRsAwNTUdNKkSUFBQeX5NiCfPn3atWvX77//rqOjI5FI5syZ8wOV00OZpPv372c45MmTJ+iHWd5iq2jTZ/Xq1RYWFpcvX67g81ZO8DIwgFlDHFS3AKiLYIeUlpai9FSamC/m/Pnnn2gCw4YN4y9Qc6BYmYEDB2r0RDKZDG1Zmpub8zcHkWvNwsKCZ7+n1q1b4ybLhAkT2EqIjo5Wzr7mEMe9adMmAADP3z6p9Yx2XgAAW7du5SChoKAARsAAAGxtbTn3N5g6dSoU4uPjw00Cf2jUMkop5dON7tu3b8h1VL9+fW6dd/G+93itV1YQ1AkVpl5wcnNzXV1dRSKRoaHhihUr2IbcvXr1atCgQQAAIyMjbnvfFU9ISEidOnX+/vtv5kNKSkpQzH6dOnVUKmShc7s2wX/Murq6THpSTpgwAQ1p166d2uOvXLkCD7azsyMxZQVefqnSBvpAsrKy4D1b093i8Kd/InrQw8MDSuMc4IyAT4d8ptejR4/atWtTTJ/t27ezEvLlyxcjIyPOpTgRRNbz48ePkTFnb2/PbasLVRJq1KgRt7AVCEqeat68OWchGiIzMxNumOrq6vLxEwwcOBCtnEuXLnGQkJSUhJxGXl5enGdCUCdUmHpBvH//vk2bNgCAqVOn8omWCwsLgxXCZsyYUTk76fIH5S6Acip6CKaP1igrK8PTYhnek7p3746G2Nvbqz1+xIgR8GAmRWbVAltTISptoA8CVX1cu3at5s6CYh556mVIaWkpKtHGv2zS0KFD8a+sY8eOrIbD4nUHDhyglNP19vZmJWfKlCm6urr8G68SWc+wIQyEW8pbcHAwHN6pUyeet728vDwUj8Wn0JEmQEkVbJcNzo0bN9DVbtWqFQcJsAIkAKBatWpqoyHVQlAnVIx6gdy/f9/c3FxfX//YsWP8pRUWFsIq7T169KiS3RTwGqcqAxwF00drnDx5Er+XBAYGMhmFO1369+9Pf3BGRgYKjL9+/Tr/OR88eBCdvXbt2vwFapq1a9fC2TZt2lRzZ8E9K/yTFtFtVU9PLy8vj6e0//znP/gys7GxYT62qKjI2toa1gzEU7gBbdaoMjA6lb8Hi8h6xisRN2zYkFuM6rJly1xdXU+ePEkk1g1FjUyZMoW/NIKg2sqcDfqysrK2bduiC848XAMnPj7e2dl58eLFHJLhlSGoEypGvSgUiidPnhgYGFhaWjIvaMIEWMbT3t6ePlToRwSv+q2yRLBg+mgHuVwOQwsh1apVY5KtkJ6ejt9+xo0bR3/8v//+C4+USCREKs2MGzcOnV27OSkMefz4MZrwhw8fNHEKuVyOe0T4d2VCYX1dunThPz1KIwszMzPmYzds2AAAgKWNKR0GWOWddevWzczMLDMzk/Xs/xf+67mkpASWDICQqqTMExgFBQBo3Lixtufyf6Snp6NC1Tdu3OAmBN/TNzU1rQy3WII6oQLUi0KhSElJqVevXq1atTSRnAXTVnimkVZCIiMj0VdTt25d5QPYtfKB5OTkREZGZmVlsRoSHR1dWlrK4XRVkoiIiNjYWPS2T58+lFKqKnn+/Dn+FlZEpQHFoDg4OKB6UHy4e/cuet2jRw/+AjVNmzZtYCMIAMC9e/c0cYp3797l5OTA1/r6+vidlRvoW8M3NzmDWhlDsrKy5HI5k4FfvnxZu3btqFGjYKMcipyMjAyGEzh79uzdu3dXrVplYmLCcEh58F/Pe/bsiY+Ph6+lUilK8tIu7du3hy+SkpI+f/5MRGZhYWFMTExsbCxN1yR6HQ5b0AMAJBIJrD/EloKCgmXLlqG3kydPhu0ntQtBnVAB6qW4uHjIkCFfv349e/YsChUnyNSpU2fNmnXy5ElKxXaylJSUREdHs1rbMpksOjpauTIZQ1C9LgBAampqcnIy5QBdVuJCQ0M9PT1hYgUAwMbGxtfXt3///vSjNm3atGzZMplM1rZt29DQULwg3k8LZbcLDwOk4dmzZ/hbWFGUBvRrRKUdGBIUFBQVFUVRmsXFxXh14LCwsHfv3uEHGBoaurq64mtO60il0hYtWsTExAAAwsLCymtCzge8WUSTJk14tqL8/v07sonZfmsqoZgscrn8+/fvpqamagd6eXmVlpYihwRlCEPTp7i4eNGiRa1atVJOj+cA5/UMkcvlW7ZsQW+7dOnC5DpUAPifc+/ePbqei+pISkrauXPn2bNn4d4QAEBfX9/V1dXb27t+/frosG/fvg0dOjQnJ4fyNIWDrratrS03k+XEiRP4LQfmFmkdgjqhAtTL8uXLHz16dODAAVSDiji+vr6vXr1atmxZnz597O3tyQqPi4ubN2/ejRs3YFfdWrVqeXh4LFiwgL6D8rVr11xdXdPT083MzIKCgtg26gYAGBsbm5mZITUVGRlJ7Y/O3IM0Y8YMAMDw4cNPnToVFRU1cuRIKIE+JTswMBA/3fTp09n5raoipaWluP0nEokYlmOnhKzSN0rMzs5Gy4t53WcIZxfR0qVLWZ2oAkA5cRrKoEFlZgAAffr04SkN7/PHs4Ic5MKFC5Tv6O3bt2pHRUVFicXiFStWoE8ofdqtrKyYnB0+ShKJM+OzniGUZq7cqjtqCFTkgrOGTE1NHTFiBLxEjRs3XrFixfXr1+/evbt27VozM7MGDRqgGPOvX7/CTsn0LZCRL4pzsxpUmwoAUL16dZ71nAhCUCdoVL18/PhRX19fbUwnf5KTk6tVq9a9e3eyYgMCAvT09Nq3b+/v7//06VO4gQ4A+OOPP2hGJSUlwRqGkJYtW3LLwXRwcEBClCtHMDV93N3ddXR0jhw5gj5Bz6ZSqZSmIBjFn2FiYsLhb6hiXL9+Hb8mzNN0UeIP5Pnz5zQHozRg8F/fNXNCQ0O3KQE7LUM6d+5M+V8/P7+TJ0/yj+cgzrZt29C02fYZYALe0Uxt9JVaUFq7VColUiVW2Q8fERGhdlTXrl3r16+Px9OgvrmQGjVqqBWSmppqaGjo4uLC6w/4L3zWM4TyUP7w4UMiEyMC7GYPFT2H4cHBwcgH7ObmRmnelJCQYGZm1rBhw4KCgvz8fPRkT/PslJubi/yXq1ev5jAltLEI4V/XgCAEdYJG1cv48ePFYnFMTAxZsSqBaaoES+6dPXtWR0fHzc0N12MoSAO3JSj4+PhQVFZ0dDSHCeCaecaMGZT/ZWT6wMoTFO/Ox48fkVz86ZCC8m46t3pWVYlJkybhF4RhgV3K7lL16tXpb40bN25EB2dkZPCfNu4wPHjwIH+BFQPu9uDWt5we3Bm7ePFintL69esHRbVu3ZrI9F69ekX5AaotrHLmzBmgVLTQz8+PIkdt48aJEydKJBI+NW9weK5nuVyObxDXqFGjUlU0cXd3hxPT0dFhOzHUSByUX+svLCxMV1d31apV06dPRwfT9I1+9OgROoxbo7QdO3bgq6WSRJRDCOoEzamX2NhYsVg8adIkgjJpyM7OrlWrVqtWrYgkLX769MnY2HjgwIEUaShcqWvXruWNxTscQMprRkHPnDlzkITff/+d8r/qY33y8/Pd3NwcHR0XLFiAf/727Vv0Gu/hR2HNmjXXrl3D7aSMjAxU+vYnRKG0B2FpaYmHo5cHxV1vb29PH1aSlJQEX1SrVo1/TEN8fDy+bU8kArdiwEMc3r9/T1z+p0+f0GuKW44D6Ftr0KABT1EQSqwPUBemU1RU5OHh0bFjR7xst0o5mZmZderUKU9OZGTkkSNHFi5c2LRpU5ZTVg3P9RwdHY0nSNra2qIAVZ4oFIqQkJCIiIiJEydyDkRFq7SsrOzz5894kXd6NmzYgCq8e3p6Tps2TeVhTk5OgwYNWrt2bXFxMfykQYMGlIIFOOhqA65LES/nAwDAfcY8SU5OPnfunEQi4RxARlAnaE69HD58WC6X43HiGsXIyGjevHleXl6RkZGUdE4OzJw5U6FQ7N+/HyUJgv+NFqWxGUaPHn3ixAncy8s8qQIHV1n4eoao//Hv3r07NTX11KlT+N8AAMATlGAEk0osLCxOnDjRrVu3srIy+InavKSqTVxcXGZmJv4JxaZkCKzxRQP6smnuT8zBG1jWr19fE7kGGgJX3MRNH7lcnpKSgt7yNH0UCgWaIZFvDSiFJwN1esTHx+fDhw/Q8YOj0oSimaS7u7u5ubmXlxebydLBcz2Hh4fjb0ld3tu3by9YsADmH/Tu3Zvz74KyShmaPjt37kShZn379l2/fj3NwVOmTMFrGtE/veC3ispzwfPz8729vXft2lVUVNS9e3fOpg9BnaA59RIUFNS+fXsa85Q4w4YN8/LyunDhAk/T58mTJxcvXvz7778pX/qbN2+QGUBjM+jo6Bw9erRNmzZItXKzGfBRlLowQK3pU1paunXrVnt7e+Xw8qCgIPSaPqG3c+fOXl5eq1atAgCYmJhQysL+bDx8+BB/W6NGDWrkuSrkcjnuZgMA4IW6VaI50+eHSGtHmJubSySSkpISoMr258mXL1/wkg01atTgIy0tLa2oqAi+JnVv1tXVNTY2zs7ORp/QmD6pqakbNmwYP368cqIHK+/R6dOn79+/r1wDmg881zNl44/I5d27d+/MmTNhsQB9fX21TyM04M6DpKQkJl7VyMjI+fPnw9c6Ojo+Pj6Up1MKlJYmzE0fDjm53759o9xs+F/wrKwsJyenly9fwreUP4cVBHWChtTLq1ev4uPj8a3MCsDW1rZZs2YXLlzAO59zYOPGjQYGBjAvCoe5zWBmZnb06FGYNQIAYO4ExcFNn+zs7NLSUtzRq6auz+XLl9PS0iZOnEj5PC0tDS/xgmL0ysPT0xOmR8LMgp8Ziukza9as1wxAxdwgurq6sNoKDci1SKSawJ07d9DrH2i3CwAgEonQb4C46UMpO8GkOBMN+FMjwRoQzEvywPqHKit8MPceFRYWenh4/Prrr8p6gw881/ObN2/wt/wvb25u7sKFC1GRpE6dOvH59vE4JCartLCw0NXVFT06T5gwoUWLFvRDUlNT8bf0pgNaiiYmJqiCNnMoVxsAoNwGji3btm1Ddg8AAHVx5wBBnaAh9QIzPdXeWJUpKSl58uRJYGAg5VGZIS4uLi9fvkxMTOQwFpKenn7x4sWBAwcqu2pOnz6NXqv903r16gXvcWKxmFuxNDyuRqFQUDZb1Jg+gYGBYrGYklMNADh+/Dj6zdevX19tyYFq1arBolh2dnYM511VoZg+ai0YCG55AAD69Omj/BSOU1RUhDb1+T95v379Oi0tDb39sUwfAACqSsKqDicTCgsL8bc8TR/cN0PQX8KwJM/Tp08DAgK8vLxUbtsx9/r4+Ph8/PjRz8+PvnQHK/ivZ3wBAwDg0yQfrl69mp+fj97yuRMDbIkCZqt02bJlyLzQ09NbuXKl2iH3799Hr+vXr09ffwstRSJXG5C44GfPnkWvq1evzsfHBojqBE2ol1evXhkYGOAV/5lw8+ZNa2trBweHkSNH2tra9uvXD9+OZwKsR6BsuTInKChIJpOhXnuIyMhI3K7MT8cAACAASURBVPNKCSVUCWzw8ssvv3ArK4Va40G+f/+Ov1Wjm2JiYnr06KH8hHT48GH02tXVlYmOgx5d2DD2pyU/Px+PkRKLxQzLpOL7TQAAPG1PJXg1QsoK4ABueP1YgT4Q9MuhqWzLDYrpw/NSk/3WEAy9PnPnzm3cuPG8efNU/q+xsTElrF6lnJSUlA0bNowcOZKhTc8Q/lcmNzcXf8v/LkWpSor6cHEDV+5qV2laWtru3bvR2/79++P7ZeWBamEDBrtFaA5ErjZQuvGwJTY2Fnf5dOvWjYMvCoegTtCEeklJSbG0tGQ15MWLF/369cMrJoeGhg4aNIhVEwV4UrYGE05MTEyNGjWUCx3jNkOHDh3w1t3lwdNmoKwQuCmJUBPrc+nSpZo1a1I+jIqKwu/feF8nGuA+NKmSlMXFxe/evYMtZ4kIpMfExKRJkyZ4nSVuJCYmojgvAICdnR2TZDeZTIanS+jr66v1FpK9if64gT6QCjN9eHp9tGj6nDx5Mjw8/Ny5c+WdVyQSmZiYfPv2jV7O4sWLy8rKUA1oUvC/MriHBgDw9etXPvNJTk6GJT8gpqamqAAgN1iZPps3b0YxYQAAVF2WHjxEQa3jlqfpQ7naAICvX7/y2fNCPeQhv//+O2dRkEpu+qSmprI1fTw9PZVjhyMjI0+cOMHwHg3+a/oot31gzt9//+3h4UEpiiuTyfBHhfHjxzMRxdNm4GX6NGrUSPnD48ePo9f29vbNmzdnMo+3b99aWFg0a9aMycFq6dWr14MHD4iIYkidOnU+ffrEMyEWv3MABllakPv37+NPUf3791frhSZ7E2WlNCshgtcHf0tZhACAwsJCT0/PHj16DBkyhF4Ovenz+PHjY8eOeXl5qdQbfOB/ZSg+c0pPGLZs3boVf5ju1asXz9095qZPVlYWbDkJ0dHRGTBggFr5ycnJeGEwTZs+yjsUz549Y7t9g/jy5cvRo0fxT3j62EClN31SUlJYXS6FQkFJqUNEREQwN30sLCzEYjEfr4+JiYlyt77Q0FCkLiQSCUNjHYYrcb7jUEwftGMOYf1zlcvluPnGZMcOnjUyMpJPTD4F/KGnYigpKWHY95EGyl2HYeQTXuEAMLvmuDOMPu9DLS9fvsQfkX9E0wfdlvh/g+VJhvD0QRL81nDUen02bdqUkpKiXLSQlRyFQuHu7m5paUnpFU8E/leG8rSQmJionO/KkM+fP+P7TQCAvn37chOFEIlE6O+iX6WXL1/GfSqOjo5MPMf4nrWlpaXaYkvoghO52gAAvEYiW1avXo1bFQ0aNFAb060WgjpBE+pFoVCwvfLlnZ3Vhhdch8T1JO4u6devH8O6XOHh4bVr1+bsLqH8FXp6evhb1j6M+/fvo0wBkUg0bNgwJqOePHlSXFzcs2dPtqcrj9u3b7969Ur5+VVD1KxZ09bWlufuMuBk+ij+tw+atbU1k7B/3N9IsXbZ8qMH+gDMUK5evTpZyfQ+VbYQ/NZwKCZLcXFxfn4+uhSfP3/etGnT1KlTW7duzUoOxfQ5efJkREREQEAA8YsMSFyZRo0aUfLbz507x60wzIIFCyiPXs7Ozhzk4MDS2PA1/QUMDg7G3zLc+mGboYkuOOerTfnkwoULfn5+HJr7xsTE7N+/H/+Ev6EJiOoETaiXunXrUjLy6BGJRA4ODjdv3lT+L7VlUHC+fPlSVlbGpN4KcwoKCvBFqxwBrRKZTPbo0SMXFxfO56VoY4onkrXpg2dZd+jQgWGhzytXrujo6NC701lRo0YNnhH+WoFi+jBxaT548ADvl+7p6clEfRC8if7ogT4AuwKaNn14XmoNmT4q89LRpfD09JRIJLDsFis5+GIuKCjw9PR0dHTURPNqQOLKtG3bNiQkBP/E39+fg+kTGBhIqffYunVr/rcK/I+iWaWlpaWUqu4Mt37wXzET7ztP06d169Y6Ojp4XGNycnJISMgff/zBSo5MJhs/fjwlhIWI6UNQJ2hCvVhaWuItEJiwfv36jh074tccANCqVSvmu13gvwHObMOM6AkNDUV+SqlUSmnrWR63b98uLCxkaCephLJ0KeFHrDe88M7Syknv5XHu3Lnu3bvzL+3wo4PnlZiamjKpgHfixAn0ul69egwDxPCvmc/moEKhwBNDfsTdLoBdAc4d6cuD8iRB0OtDcEuXJi/94cOHJ0+eXLlyJZN6qTRen02bNiUnJ/v5+RHcp8Phf2WUn5QiIyPx6sZMePPmjXKnCNR2jQ/4H0WzSt+9e4enSkkkEiaFdz9+/Mgq0AefA7erbWBgoOxEXLFiBeXGrBZ3d/fnz5/jn+jp6fXu3ZvDlCgQ1AmaUC+WlpZsA27s7e0DAwPxH7KTk1NwcDBlo4ceTZg+uM3Qu3dvhuUSzp07Z2hoyOfHRdHGlG+HndcnMTERr7rG8IEjNjY2Li4OFR79mcFtHSYOs4KCArwM1KJFixhuuhkYGEilUmj28kkrff36NR4Swc30ef78+cWLF4uKilq2bDl06FDlEMj09PSHDx++ffs2OTm5QYMGNjY2zs7OpFosASzVlnglcYo1wDPOEc+m5JkMjFOe6aNQKObOnWtraztz5kwOcjIzM2FEwqdPnzZv3uzq6qo5Ryz/9ezs7GxkZJSTk4N/OHv27B49eihHZaokNTW1b9++lMJoAAAizmw8j4FmlVJuh3Z2dkwUAu7yqVu3LpO8YrQUOa/DkSNHUqyWZ8+e+fj4eHh4MJSwfv16SkwVAKBnz55EfsUEdYIm1IuNjU1+fv7r168ZZhFBhgwZ0qtXr4cPHyYnJ7dt29bOzo5t9D3sJkm28jC+DcfQZigrK7tw4cLAgQO5VfSBULw+VFGsWqHiLVVNTEzKysqYjJo9e7aenl56ejqrc1VJ8G7Gzs7OrI6vXbt2fn4+83MhBdehQwfOE8ZVT/369TlIOHz4sEgkatSoUcOGDaEQvL/xx48fp02bpq+vr6en16JFi44dO0LbvGnTphcvXuQ8bQrouefPP/8kJRNCqV/Crcc1Ar+x8W8Cj1CuzXrq1CmFQgGzZkJCQhjK2bNnD0VOVlaWQqEYM2ZM9erVP3/+TGrCKuG/nqdMmaKsHx0cHLKzs9WOjY6ORjUA8dtJ/fr1iXS6xusN7t+/v7zD8HBR8N8mkWrBtzxGjx7NZMjUqVPRkMLCQqZ/Bsb79++Vn17EYvHx48fVji0tLUXB8pT9fX9/fw6TUYagTtCEeoFW47p160gJZEibNm1sbW0JCsTrDAEAnj9/zmQULF/JrWE7IiAgAJ1XT0+PYq6wMwnxKP2uXbsysSjz8vKOHDkyduzYn7xrKQQvV6+2SlBZWZmvry96u23bNlYOVdT3jk8JE3y3iybQRy6Xjxs37vz585TPnz59Om3atC1btiQlJcXFxVlZWX3+/HnIkCHQ/X79+vW2bdveuXPnyJEjBQUFL1++DA8Pf/v2rY2NTUJCwvDhw5k0tFdLZmYmihUg3gvQ0NAQz/7lGXdfp04dVBmIZ+EZHGWvz7dv3/Lz85csWTJgwADmkRMqvUcREREnT55cvHgx2dBIZfiv5xUrVig/RD5+/NjJyYlmpZWWlu7fv79jx47v3r2rXbv2P//8g//v2LFjiezxffnyBb2mWaWUBcaw2tutW7fQa4aOW3wO3FLhGjVqNH36dMqHUFF4e3vThBAlJCQ4Oztv2LABADB27Fi8fKtUKh0+fDiHyVAgqBM0pF7s7OysrKzwplcVQFJSUkxMDIfuGTTgNoOJiYnaXArIrl27rK2t2UaGUcB/LPXq1aOYK+xMH9yCY+iIO3r0aG5urqenJ6sTVVVw00dtwYyzZ8+i5/UBAwaMGTOG1blQyzdcq7Ll3r176DWN0jx79mxAQIByWICHh0fXrl3nz58vEon09fU7d+4MAPj+/bu/v39QUFC/fv2GDBny4sWLkSNHogfEevXqwQe+kpKSWbNmcZ45Aq+pr4k2yHjbB/qm6GqB7jH4WrkVAGeMjIwoz98ZGRkbNmz4+vWrj48PczkqTSh3d/dGjRotXLiQwERp4b+eGzRosHz5cuXPY2JiHB0d//zzz+DgYNSUrbCwMDY2duvWrU2aNHFzcysoKBgwYMCLFy9kMhmeNMsw9k4tDFcpZUuFSW+jN2/e4HqbYYURvGEk56W4cuVK5aYoZWVlq1atatWq1YYNG+Lj49HFTE1NvX79+ogRI2xtbW/evGlsbHz8+PGAgAA8N83FxUW5xC4HCOoEzakXFxeXx48ff/r0iaBMemDoG1nTB197tra2TNwlL1++vHXrloeHB4d8QBzc9FERXsLKg4TXVdyxY4fa4/Py8urWrTt06FB2jqqqC97fbsSIETRHlpSUIA+/kZHRp0+f2J4LPjZBUlNTOcwWj+sCALx79668I9u1a2dhYQETdBEJCQkikejkyZPok7/++guKqlOnjoGBgbu7u0ppjx8/hofBlsgcZo4TGhqK/oRbt27xlKYMHnQ5f/58ntKQD4as25mSYeDi4qKvr892tsplAOET+ZkzZwhOtTz4r2fIhAkTqErwfzE2Nra0tMR9OU2aNDl27Bgcjvfq6ty5M6E/ToHv79CseUpme0JCglrJ27dvR8dbWFgwnA/eahD/CbPl+fPn9BEwurq6lpaWeG6UWCweP378x48fFQoF/ugFALh+/TrnmeAQ1AmaUy9Pnz4FALi5uRGUSUN+fr6lpWWzZs2IbOAiVqxYga7PsGHDmAwZOHBg3bp1i4qKeJ4az99U3otk5/XBo3Tr1Kmj9vhNmzalpqYuWbKE1VmqMFZWVih4nj4kdufOnaj17qZNm5j06KGAV/3i1o4O/vYg9erVK6+iT3BwcFRU1NKlSykRlwcOHDAwMMBTGdFflJaW1rFjxy1btqgUiLxHJSUleGYKN/BqLvwroSmDV4fjUwAegmb47t075bL0nKE4bIKCgmrUqIFrJQ5CAACnTp1ycnLik4DKHP7rGeLv779gwQKap8/s7OyUlBSFQgEAsLCw2Llz55s3b2DSfmpqKh4yPGfOHM7ToIBWqY2NDU1KDqVdhtogULlcjocHMS8q26xZM3SJ+FxtOzu7Gzdu0ARWl5aWpqSkoOTnwYMHv3jx4vDhw/AxHZ988+bNieR2AaI6QXPqpX379iNGjDh48GBcXBxBseXh6+ubkpKyfv16skmabG2G27dvX7p0af78+fzL2ePuYRU3UFZmFB77dvDgQfqDExMTq1WrNmvWLFanqPK4urrCC9i+ffvyjklPT0d+XRcXF25meGZmJlrEe/bs4SAB78Q0ZMgQlccUFRU1bdrU1tZW2Ui3trYeOXIkeltQUIB0upmZWVpaWnnnxcMpMjIyOMwcZ/LkyVAUWT8KAjfgfvvtN57S8Hip169fE5mhQqHo0qUL5Ye/b98+tkKUGzOJxeLIyEhSk6SH/3rGefDgQd++fcvLIjQ0NBwzZsz58+cpq3rNmjW4MpXJZDyngUAx1Gqf8vHitjExMfQHU54udu/ezXxKqODqqFGjmI9SSUFBwYoVK2ie39q0abNmzZq3b9/io/Lz8/FC1fy/dARBnaBR9RIfH6+np1cB2yZfv341MjLq1KkTccl4cZa//vqL/uDi4mI7O7tff/2VsoHADTyu6NChQ5T/ZWf6HDhwAMlavnw5zZH5+fl2dnYtWrQoKChgO+OqzbVr1+AFNDY2VmnTyOVy1Pa2TZs2ubm5nM+FvvvZs2dzGI5HyJcnYeHChSKRKCwsjPJ5fn6+WCw+ffo0+gSPtdy1axfNeVHz8Jo1a3KYNgVUzPQ///kPf2nKXL58Gf1dJiYmPKWlp6ejGzzPfDEcSlFUOzs7humZFCj9WadMmUJqhkzguZ6Vgc2h1qxZM3369EmTJnl7e//zzz+3bt1SqbXKysrwIsU0eVhsKSgoQC4WtQlQuDVDn+50+fJliiP21atXzGc1e/ZsOKp169bMR9Egl8vDwsL8/Pw8PT3Hjx/v7u7u6+t79uxZisWDOHjwIJq5lZUVkdshhKBO0LR6gd9CQECAJoRD5HI5LNBw//594sLj4+PRl+jk5ER/8JQpUwwMDIg88snlcjwrSDmzjJ3pk52djVysbdu2pTly1KhREonk2bNnrKdc1SkrK0NVE16+fKl8wNq1a+H/2tjYJCcn8znXjBkzoCh7e3sOw6Ojo9HSmTt3rvIBp06dAgCsXLlS5XCKwwZFmEokku/fv9OcF93hfv/9dw7TxpHJZCiT7ujRozylqYSScASr3fABuc0XLVpEZIYKhWLSpEn4JPH6AqzAa50ZGRnRuO40Ac/1zBO8MluzZs1KS0tJScYDa2CMCw3fv39HkVs08YKhoaFSqRTfvDA3N2c1K1S0WkdHh0n+P3Hw3T0Ua8UfgjqhAtRLbm5u69at9fX1Hz16pAn5CoVi6dKlQJ0vgw+dOnWCl0hfX58mSg8WUmHlmKQBDw+XSqXK8XPsTB/F/z5z/Pvvv8oHZGZmDh48WCQSkSrAUPVAkXHK97a9e/fCsPaWLVvytHsU/zVNoPLi4D2SyWToNoxvXUGOHTumq6s7atQohvtxML0LANCtWzeaw/DONT4+PmznTCEiIgJJe//+PU9p5YFndjx+/JinNFQv2NHRkcj0FArFokWL0AyHDx/OWQ7uQ960aROp6TGE53rmCdLgAIDz588TlLx+/Xoo1srKisnxFy9ehMeLRKI7d+5Q/lcmk61du1YikXTp0gWPtKPPq1AG/yUyL/5ECrxfR9u2bQnG3hLUCRWjXpKSkszNzevWrauJ0lkwmmrw4MFko5txIiIi0M6yygCY0tJSb29vsVg8btw4UifFY/JUxiGwNn3kcjmqDCaRSHbu3Ik2vMvKyoKDgxs2bCiVSjXqoKsCLFiwAAAglUpv3rwJP8nOzkZlMIYPH05Es6empiJH+tWrVzlIiIiIgBKMjIxg7KdCoUhMTIRF0qZPn87w2Tc3NxcF+qxYsYLmSHxTNTY2lsOccdatWwdFaSjQB4KXHuEQQ0MBPW3r6urm5eURmSFKj9LX109KSuIsBxU4sLa2JrgBwRD+65kzaJ8aANCnTx+ywlELUubpPLt374YeHSsrK+Q8lsvld+7cgc6SiRMnFhYWwjqikJ07d7KdGHryWbJkCduxPEGGplgsvnv3LkHJBHVCxagXhUIRFhYmkUisrKzURnexYt++fXp6eq1bt9b0g8TBgweR/p8yZUpOTg76r+fPn8Po+5kzZxI0v3bu3IlWvsqfFWvTB3LkyBFU+EEqlbZv397JyQkWrXFycmK1o/zT4u3tDYPYmzZt6uTkBB2n1tbW586dI3gWFDa0dOlSbhKuXLkC4xNNTEy6d+8OlWmjRo2OHDnCSghaiNeuXaM5Et0GiGgTlBKyfv16/tLKA88fnjx5Mk9pRUVFqFEo/bVijr+/PxTo5eXFR86wYcOgnKCgICITYwv/9cwBmUyG3F0WFhZ8UuuVKSkpQUEJERERzAdevXoVZhfq6OjY2dl1794dFtFp2bIldNJQqnhzeJBAiQ6aCIClAe/e4+3tTVY4QZ1QMeoFEhISYmxsbGhoSOSnJ5PJYPuajh07Vsy2dXh4OHL8i8ViW1vbnj17wqxhKyurS5cukT0dSicCAAQGBiofwNH0USgUpaWld+/ehRGCgwcP/uuvv7y9vaOjo3nM9qfjw4cP69evHz9+/PDhwxctWnTz5k1uwac0oAaNzZo14ywkOzv78OHD8+bNGzZs2OLFi0+dOsX2iR/VtKTfqvj27RtyjZYXQsScnJwcGJqmo6PDf/eQhoSEBPQzIxITirKmp02bxl+aQqGAbXSaNm3KqheKMtBbOWjQICKz4gCR9cwWVPhRJBIR9zZdv34dCm/evDnbsTKZ7OrVq/Pnzx8+fPiYMWOWLVuGJxzgmZK1atXi8Ej95csX+LAuFos1+gvCycnJQZXBu3btSjCmSkFUJ1SYekG8fv36l19+EYvFCxcuhD1kuBEdHe3k5AQAGDduHP/yOayIjY319fV1d3cfMWLEyJEjFy1adPXqVeJ3PYVCgWqO6OjoqLxW3E0fgR8CmUxmYWEBF4EWDVOUB0GT0q/4Xy/lmzdv0OcymYxh8xecQ4cOQVH9+/fnMmk2oOLmOjo6/HepXrx4AaWZm5sTyaAuKSk5fvw42rLkTEZGxoULF7g1dSIC//WclJTk7+8/c+ZMhvksr1+/Rl4Z/sFnyqB60MRjp/BK0wyrySmD/Hx+fn4chpeWloaEhHh7e69duxbf5qABheTb2NiQdbApiOqEilQviMzMTNjewdTU1MfHh63h8v79+3HjxonFYgMDgy1btmhokloHb71SXt1RwfSp+iCPS8Vv2EPy8vLQRi991pKDgwM8jBLhu2/fPrFYzPaO27NnTyhNZTw+WfB+1ER2qVAX9AoOaqn8cF7PeXl5M2fOxAsG9u/fnz4sPT09HdXR2bx5M7+JqyA/Px/WfNPV1SV+m8dT8ZkU31dJSEgIlNCxY0e2Y69fv473O6pVq5aPjw99WAl6+OGf36oSgjqhItULhevXr8P2bfXq1Zs7d+6tW7foH5AyMzOPHTs2YsQIiUQiFosnTZqk6WbD2gVPxly9erXKYwTTp+oTHx8PIyIbN26sCdeiWvAQUZpUEbwu6t69e/H/at++PVvN++nTJxgSq9xhQxPgFfdVFgJgCwr3Jpj1UDXgtp7z8vKQYU3Byspq5syZ58+fj4uLQ7eQoqKi06dPw0qDenp6HGKEmYCqFZdXMpQzlC40nMNjUTUjkUhE08pGmRMnTqjswSSRSPr06bNt27bw8HC8/kVcXByMPgEA2Nvba8LuIagTKli9KAPrdDs4OMDfgqmp6ZAhQ+bOnbtx48ajR48GBQX5+/v//fff06ZN6969O4wiMDQ0HDVq1IsXLyp+thXM3Llz0XorL/JYMH1+ClCrAZUBX5rGy8sLnl1PT49mMwiVypVIJHh1nKioKMC+URRqn8LNUc8WuVyOdpebNm3KX2BhYSGs5S+RSKr2IxoHOKznGzduMKnQr6OjY2ZmZmpqim7bTZo0efLkiYb+EJjHJBKJiJdAO3z4MPqjzMzM+OTO7Nq1C8qZOXMm81EwmkQthoaG5ubmqIeXSCSaP38+/859KiGoEypYvdCQnJy8Z88eZ2dnExMT5curq6vbqFGjKVOmBAcHV3BYjxZB1UY6dOhQ3jGC6fNT8PbtW2j404faaAikBOnbPaLqsZT16uzsbGNjw8pflZmZCZsmNmjQoMJ+8Js3b0YaBw9U4gwKJliwYAF/aVUJbuv51q1bv/32G5P7McTIyGjlypWay/u9ceMGPJFy0Sz+4F1aebqUSkpKoFlvYGDw5csXhqNycnIWLVqE9yVVi5OTkyYKCkMI6gStqBcmFBYWJiYm3r9/PyQkJCoqKi0tTStufu0SExODVhRNqRHB9PlZQM5kUt2PGVJYWIga0dEnJO/fvx8eNnr0aPThzp079fT02LZERo05WWXg8yQ9PR39pfzT0xQKRVlZGcypNjQ05F8kuorBeT0/ePBg+vTp0KNWHnZ2dhs3bvz27ZuGJg/p2rUrAEAqlcbFxREXjoqPABKeicDAQCiKbXGErKysXbt2de/endJSA8fQ0NDV1fXGjRs8J0kPQZ2gFfUiwBDUNsDAwICmbYBg+vwsfP/+HXYh6NChg+YKdypz9+5dpOPo43+Tk5Nhb/CWLVsWFxfn5eWtWLFCLBazrRCfmZkJm7/27NmT39xZA/t7AwCaNGlC5CKjkpKenp78pVUl+K/nxMTEa9euHT58eN26dbNnz54zZ87KlSsDAwM1V5YXB1WbXbVqFXHhSUlJuG3BITtSGVhRydjYmFs4dkFBwcOHD8+ePbtjx44lS5ZMmzbNw8Nj+/btDx48qICEQYI6QYvqRUAtcrkcRffTFwgVTJ+fiKCgILgmCPZAVgvqT9S2bVu18YB3796FC9fU1FRPT8/Y2JgS78yEiRMnQpM/Pj6e66w5EhUVhQJKSJWghc1cdXV1yRZyrQJoZT0ToaioCKY+QSufuHy8xqaBgQGRXY9Pnz7BXR7+jdwrHoI6QYvqRUAtaBNZV1eXvmy9YPr8XEyePBk+uvEv8cKcO3fuHD9+nGFVj6KiosuXL2/fvv3ChQuUBqhMQNlk2mohN2rUKDgBUneIgoKCVq1aAQAcHR1/wp17erSynvkDG0YaGBhootRWSkoKTEyDWFtbk5IcEBAAZV6+fJmUzAqAoE7QunoRoGfo0KHwC5owYQL9kYLp83NRWFhoZ2cHABg6dKi250Ke3Nxc6DQaO3astuaAInB1dHT4dMvCiYuLg9Vftm/fTkRgleFHXM9RUVFwhRw4cICIwIyMjL///nv69Onjx4/v1q0bKsCI+PXXXydMmDBjxozFixezSlBXxs3NDQDQqFEjhk8yWoegTqgM6kWAhvj4eBgeoKOjozZ+TjB9fjoSExNr164NANiwYYO250ISuVwO24g6ODjwbNfAk6lTp8JbzuzZs0nJDAoK0tHRkUgkZFs5VgF+rPWclZUFaySqbGHNDTyPXS0bN27kc66ioqIuXboAAAYMGEC2xYQmIKgTKo96ESgPaJcDZpXVRAqFgvnPRqBqEBkZ2b179/z8/MDAQFSo/kdn2bJla9eutba2Dg8Ph/dCbZGamtqiRYvv37/D5B28qC4f9u3bN23aNDMzs4cPH6IaQgLgx1nPMpnM2dn59u3bLi4u586dQ13oeZKZmXnhwgWxWKyvry+VSuG/UqlULpcXFxcXFxcXFRXBF3p6eoMHD4adkjmTlZXVpUuXV69ezZkzx8/Pj8ifoCEI6oTKo14EVPLu3bvmzZvLZLK6deu+efMGxqXRoXlTTKAyEhYWZmhoaGBg8OjRI23PhQCwBI61tfXHjx+1PReFAouKIOsb9/X1BQDY2NhwiIKq2vwQ6xnW2vnjUbZ+1QAAAidJREFUjz8qVTEYDqSkpEDfFef+GBUAQZ1Q2dSLgDIoyPLUqVNMjhdMn5+XR48eWVhY1KpVq7xS3z8KwcHBenp67dq1q7Dm0kyA7geRSBQeHk5QrL+/v66uroODA/8mqVWMSr6eYWjzX3/9pZW+B8T58uWLo6OjWCw+efKktueiAoI6oXKqFwEc1GnOxcWF4RDB9Pmp+fjxY58+fegrDVZ++vfv7+bmVtk24NPT02GP8RYtWpC92927d69Zs2Y03dB+Wirtei4oKGjYsGEVi1IvLCycNWtWt27dtD0RFRDUCZVTvQggsrOzYYXSxo0bZ2VlMRwlxPoICGiKK1euDBw4UC6XL1myZN26ddqejoCAgEBVY8qUKQcPHpRIJA8ePGDeqYZMnJ2AgIAy/fv39/HxAQBs3LgR1doSEBAQECBCSEjIwYMHAQC7d+9m1aFPMH0EBDSIu7v74sWL5XL5n3/++e7dO21PR0BAQKCKEBcX9+effwIAVq1aBaubMkfY8BIQ0Dhubm779++3sbEJDw+HfcoEBAQEBDiTlZXl6OgYHx+/aNGiTZs2sR0ueH0EBDTO3r17Z8+e/fbtWxcXl+LiYm1PR0BAQOAHprS0dPjw4fHx8V5eXhzsHiCYPgICFYBIJNq+ffu6deseP34cFham7ekICAgI/MBcvHgxPDx89+7da9as4SZB2PASEKg48vPzq1Wrhrq7CwgICAhwoKCgQLldHXP+HySc016X6QwaAAAAAElFTkSuQmCC;" vertex="1" parent="1">
          <mxGeometry x="380" y="340" width="287.25" height="30" as="geometry" />
        </mxCell>
      </root>
    </mxGraphModel>
  </diagram>
</mxfile>
